<?xml version="1.0" standalone="no"?>
<!DOCTYPE svg PUBLIC "-//W3C//DTD SVG 20010904//EN"
 "http://www.w3.org/TR/2001/REC-SVG-20010904/DTD/svg10.dtd">
<svg version="1.0" xmlns="http://www.w3.org/2000/svg"
 width="512.000000pt" height="512.000000pt" viewBox="0 0 512.000000 512.000000"
 preserveAspectRatio="xMidYMid meet">

<g transform="translate(0.000000,512.000000) scale(0.100000,-0.100000)"
fill="#000000" stroke="none">
<path d="M3198 4763 c-175 -25 -177 -26 -182 -52 -3 -14 -46 -278 -96 -586
-50 -307 -93 -562 -98 -566 -10 -9 -344 -61 -350 -54 -3 2 2 181 10 397 9 216
13 396 9 399 -11 10 -732 221 -738 215 -3 -3 -68 -178 -144 -390 l-139 -386
-10 -162 c-5 -90 -12 -184 -14 -210 -5 -46 -4 -48 20 -48 21 0 241 33 372 55
l32 6 0 -134 0 -133 -391 -39 c-299 -30 -392 -42 -397 -53 -5 -14 155 -1242
163 -1250 2 -3 262 7 576 20 l572 25 204 -64 205 -64 396 36 c218 19 411 38
428 40 30 5 32 8 37 58 4 28 7 239 9 467 l3 415 -70 10 -69 10 2 95 c1 52 5
172 8 265 l6 171 230 23 c126 12 231 21 233 19 4 -4 -83 -1919 -87 -1923 -3
-3 -1297 -105 -1325 -105 -10 0 -13 42 -13 174 0 100 -4 177 -9 181 -11 6
-691 -630 -691 -646 0 -5 87 -9 204 -9 l204 0 3 -209 c2 -115 7 -213 11 -217
7 -7 192 11 231 22 15 5 17 -5 17 -110 0 -63 3 -117 8 -119 7 -5 870 158 878
165 2 3 -12 118 -31 257 -38 272 -40 301 -25 301 5 0 147 16 314 35 168 19
312 35 321 35 8 0 15 7 15 15 0 11 -9 13 -42 9 -24 -3 -177 -20 -341 -38 -164
-19 -301 -36 -304 -40 -4 -4 10 -129 30 -278 20 -149 35 -273 33 -275 -2 -3
-179 -38 -392 -79 -214 -41 -399 -76 -412 -79 -23 -6 -23 -5 -20 102 l3 107
140 19 c77 10 144 22 148 27 7 6 96 340 97 363 0 4 -88 7 -195 7 l-195 0 0
125 c0 69 1 125 3 126 1 0 305 24 675 54 371 29 677 57 682 61 8 10 97 1960
90 1968 -3 2 -113 -7 -244 -20 -132 -13 -241 -22 -242 -21 -1 1 3 172 9 380 7
208 10 381 8 383 -2 2 -51 4 -108 4 l-103 0 0 63 c0 34 9 197 19 362 11 165
17 303 14 307 -2 5 -7 8 -11 7 -4 -1 -87 -12 -184 -26z m172 -20 c0 -10 -9
-162 -20 -338 -11 -176 -20 -328 -20 -337 0 -13 -10 -18 -42 -20 l-42 -3 -77
-282 -77 -283 49 -116 c28 -64 48 -118 47 -119 -3 -2 -642 -64 -702 -68 l-30
-2 3 145 c2 80 7 148 12 151 5 3 91 18 191 32 100 15 183 29 185 31 2 2 46
266 98 586 52 320 97 585 100 588 4 5 260 46 313 51 6 0 12 -7 12 -16z m-1240
-359 c179 -53 329 -99 333 -104 7 -6 -18 -780 -26 -785 -3 -2 -529 -85 -539
-85 -4 0 -9 86 -10 190 -2 118 -7 190 -13 190 -6 0 -10 -71 -10 -192 l0 -193
-195 -31 c-107 -17 -196 -31 -197 -29 -2 1 2 87 8 191 l12 189 134 375 c74
206 137 378 140 383 2 4 12 6 21 3 10 -3 163 -49 342 -102z m1195 -416 c-3
-29 -12 -174 -20 -323 -8 -148 -18 -298 -21 -333 l-6 -63 -31 3 c-30 3 -34 9
-80 116 l-48 112 73 270 73 270 33 0 32 0 -5 -52z m221 -60 c-3 -62 -9 -229
-12 -370 l-7 -257 -26 -5 c-14 -3 -63 -8 -108 -12 l-83 -6 0 28 c0 16 9 173
20 349 11 176 20 335 20 353 l0 32 101 0 102 0 -7 -112z m-1112 -585 c-4 -82
-8 -149 -9 -151 -2 -2 -487 -52 -511 -52 -11 0 -28 249 -18 259 3 3 403 70
537 90 4 0 5 -65 1 -146z m1091 -100 c-2 -16 -7 -131 -10 -258 -3 -126 -8
-231 -10 -234 -3 -2 -128 11 -280 29 -151 19 -277 32 -279 29 -7 -6 104 -521
114 -532 6 -7 445 136 460 150 3 2 7 68 10 146 l5 142 40 -3 c86 -7 78 42 70
-456 -4 -242 -8 -442 -9 -444 -4 -4 -768 -72 -810 -72 -22 0 -126 28 -233 61
l-193 62 -562 -26 c-310 -13 -566 -22 -570 -18 -7 7 -167 1204 -162 1210 3 4
757 80 760 77 1 0 5 -60 9 -133 l7 -132 -117 -3 -117 -3 -78 -240 c-55 -169
-75 -242 -67 -246 13 -7 305 -121 371 -145 l39 -14 -5 310 -5 310 136 0 136 0
138 90 137 89 0 86 c0 60 4 87 13 90 21 7 730 75 737 70 4 -3 22 -41 41 -85
18 -44 38 -79 43 -77 6 2 13 40 16 84 3 45 8 84 11 87 6 7 126 23 181 25 35 1
37 0 33 -26z m-245 -38 c0 -55 -13 -58 -33 -7 -11 27 -12 39 -3 44 26 17 36 7
36 -37z m-854 -82 c-3 -21 -6 -57 -6 -81 l0 -43 -122 -79 -123 -80 -137 0
-138 0 0 135 c0 101 3 135 13 136 6 0 109 11 227 23 118 13 232 24 254 25 l39
1 -7 -37z m-544 -600 c3 -159 4 -290 3 -291 -3 -4 -79 24 -272 98 -46 17 -83
38 -83 45 0 13 128 413 137 428 2 4 51 7 107 7 l103 0 5 -287z m1382 227 c131
-16 240 -31 242 -32 1 -2 0 -65 -3 -140 l-6 -136 -206 -71 c-113 -39 -208 -68
-212 -63 -4 4 -28 104 -53 222 -26 118 -49 225 -52 237 -6 21 -3 22 22 18 16
-3 137 -19 268 -35z m-708 -1456 c-3 -7 -47 -14 -118 -18 -62 -4 -121 -9 -130
-12 -15 -4 -16 -18 -11 -129 l6 -125 -181 0 c-100 0 -182 2 -182 5 0 2 138
135 308 295 l307 290 3 -147 c1 -81 1 -152 -2 -159z m4 -159 l0 -125 -120 0
-120 0 0 115 0 114 33 6 c17 3 57 6 87 8 30 2 70 4 88 5 l32 2 0 -125z m0
-333 l0 -188 -112 -16 c-62 -8 -114 -15 -115 -14 -1 1 -6 387 -4 399 1 4 53 7
116 7 l115 0 0 -188z m386 171 c-3 -10 -22 -84 -42 -166 -31 -127 -39 -148
-58 -152 -26 -5 -233 -35 -246 -35 -6 0 -10 72 -10 185 l0 185 181 0 c167 0
180 -1 175 -17z"/>
</g>
</svg>
