<?xml version="1.0" standalone="no"?>
<!DOCTYPE svg PUBLIC "-//W3C//DTD SVG 20010904//EN"
 "http://www.w3.org/TR/2001/REC-SVG-20010904/DTD/svg10.dtd">
<svg version="1.0" xmlns="http://www.w3.org/2000/svg"
 width="512.000000pt" height="512.000000pt" viewBox="0 0 512.000000 512.000000"
 preserveAspectRatio="xMidYMid meet">

<g transform="translate(0.000000,512.000000) scale(0.100000,-0.100000)"
fill="#000000" stroke="none">
<path d="M700 4321 c-24 -46 -8 -101 47 -162 26 -30 32 -40 18 -35 -74 30
-111 38 -145 33 -66 -9 -98 -41 -148 -146 -24 -53 -62 -115 -84 -139 -37 -41
-39 -47 -35 -90 3 -26 13 -74 23 -107 24 -82 15 -115 -56 -209 -61 -82 -85
-135 -96 -221 -22 -175 116 -282 264 -206 49 25 76 56 159 181 l70 105 50 1
c58 2 85 14 130 57 l33 31 24 -23 c38 -36 77 -117 83 -175 7 -65 -9 -134 -55
-246 -49 -118 -62 -173 -62 -260 0 -130 55 -212 180 -269 103 -46 150 -91 96
-91 -100 0 -151 -96 -87 -161 32 -32 78 -38 119 -15 28 15 62 64 62 89 0 22 4
21 84 -3 86 -27 131 -54 156 -94 38 -63 23 -103 -74 -189 -47 -42 -74 -75 -98
-124 -31 -63 -33 -75 -33 -168 0 -87 4 -107 27 -157 20 -43 32 -58 47 -58 22
0 30 33 12 45 -19 11 -43 108 -43 173 0 111 29 170 128 266 94 90 111 125 93
188 -12 47 -60 103 -108 128 -20 10 -72 28 -115 41 -61 18 -80 28 -91 48 -23
45 -64 79 -142 118 -187 94 -213 208 -109 475 55 141 70 219 57 293 -12 66
-27 95 -80 163 -37 46 -40 54 -30 79 22 57 27 129 17 228 -10 101 -26 141 -48
119 -8 -8 -8 -37 1 -100 15 -114 6 -193 -28 -256 -34 -62 -75 -95 -131 -104
l-42 -7 6 31 c11 57 -70 110 -96 63 -15 -29 -12 -82 6 -103 16 -17 13 -24 -52
-119 -77 -113 -131 -166 -180 -175 -92 -17 -154 43 -154 150 0 73 28 146 87
225 87 116 96 176 49 310 -9 24 -16 45 -16 47 0 2 20 25 44 53 27 30 54 76 71
121 15 40 41 88 57 106 26 29 37 34 75 34 24 0 67 -10 94 -21 41 -18 54 -20
75 -10 22 10 33 6 97 -32 40 -24 127 -72 194 -106 126 -64 176 -102 393 -300
287 -262 411 -357 543 -416 166 -73 353 -93 701 -75 346 19 442 8 581 -63 142
-72 192 -141 220 -302 17 -102 19 -249 4 -315 -5 -25 -30 -112 -55 -194 -67
-215 -59 -253 72 -396 41 -45 79 -92 84 -106 17 -45 11 -96 -30 -239 -58 -203
-88 -344 -102 -481 -12 -128 -9 -157 19 -152 14 2 18 15 20 58 7 162 44 348
123 620 16 58 30 120 30 139 0 52 -32 107 -115 198 -41 46 -79 92 -86 104 -21
40 -12 112 35 260 65 209 74 287 53 441 -9 68 -19 133 -23 146 -6 22 -5 22 40
-8 50 -34 69 -64 93 -144 24 -80 55 -113 149 -156 284 -131 543 -126 772 16
80 50 201 165 254 242 26 37 28 46 16 58 -11 12 -24 5 -88 -43 -41 -31 -104
-70 -140 -87 -59 -28 -74 -31 -165 -31 -82 0 -109 4 -147 22 -65 30 -127 90
-193 188 -116 173 -193 205 -447 184 -167 -14 -228 -6 -292 37 -30 21 -40 23
-52 13 -13 -10 -12 -15 7 -35 12 -13 47 -34 78 -46 49 -20 70 -22 171 -18 265
8 312 6 355 -17 52 -28 110 -90 168 -179 125 -191 345 -253 550 -154 l42 21
-55 -50 c-71 -65 -206 -134 -305 -156 -139 -31 -321 -6 -488 67 -96 42 -122
68 -148 147 -25 78 -56 122 -110 158 -32 21 -41 23 -54 13 -18 -15 -17 -15
-35 29 -18 46 -103 129 -173 170 -146 86 -281 107 -567 89 -250 -15 -513 -6
-615 21 -94 25 -182 65 -263 118 -71 47 -257 202 -377 313 -213 198 -301 266
-433 334 -70 36 -162 86 -204 111 -77 45 -78 46 -78 86 0 104 -94 206 -130
140z m65 -71 c8 -16 15 -37 15 -47 0 -15 -4 -14 -19 7 -21 27 -33 70 -20 70 5
0 15 -13 24 -30z m-65 -845 c0 -8 -4 -15 -10 -15 -5 0 -10 7 -10 15 0 8 5 15
10 15 6 0 10 -7 10 -15z m540 -1130 c0 -29 -40 -75 -65 -75 -19 0 -55 35 -55
54 0 23 41 46 82 46 34 0 38 -3 38 -25z"/>
<path d="M426 4163 c2 -126 4 -138 21 -138 21 0 30 33 32 113 l1 53 30 -16
c16 -8 40 -15 55 -15 39 0 30 28 -15 46 -22 9 -54 34 -71 55 -51 65 -56 56
-53 -98z"/>
<path d="M1295 4155 c-104 -30 -228 -33 -314 -6 -53 17 -62 17 -73 4 -18 -22
9 -38 93 -57 85 -20 154 -20 244 -1 83 18 98 19 90 4 -12 -19 5 -78 33 -110
31 -37 88 -65 155 -74 47 -7 47 -7 41 -41 -16 -89 65 -175 181 -191 41 -5 44
-8 39 -29 -15 -61 45 -139 116 -150 38 -6 39 -7 25 -27 -23 -33 -18 -81 11
-116 30 -36 64 -41 64 -11 0 11 -7 23 -15 26 -44 17 -36 72 18 123 40 37 25
51 -55 51 -60 0 -72 3 -93 25 -26 25 -35 88 -15 100 16 10 12 42 -6 49 -9 3
-37 6 -62 6 -56 0 -123 29 -146 61 -23 33 -21 88 5 115 37 39 20 54 -61 54
-80 0 -128 16 -165 56 -29 31 -33 79 -10 110 20 27 19 54 -2 53 -10 0 -54 -11
-98 -24z"/>
<path d="M663 3879 c-28 -14 -43 -28 -43 -40 0 -24 21 -24 71 1 41 21 49 20
86 -13 42 -38 60 7 18 48 -30 31 -75 32 -132 4z"/>
<path d="M3002 2967 c-9 -10 -3 -25 23 -61 110 -155 89 -372 -49 -510 -55 -54
-159 -111 -256 -140 -81 -24 -222 -43 -425 -58 -278 -19 -300 -17 -353 27 -60
51 -68 195 -17 315 18 42 28 84 29 120 1 50 -1 55 -21 58 -21 3 -23 -1 -23
-43 0 -26 -11 -74 -24 -108 -38 -96 -49 -152 -43 -217 9 -80 33 -135 74 -169
l35 -29 -33 -7 c-19 -4 -74 -28 -124 -53 -109 -55 -214 -155 -263 -248 -62
-120 -94 -321 -69 -440 29 -135 88 -210 215 -271 2 0 -13 -22 -32 -47 -50 -66
-62 -146 -21 -146 17 0 20 7 29 61 5 26 21 51 58 87 44 43 50 53 38 66 -7 9
-20 16 -29 16 -27 0 -116 57 -146 92 -56 67 -69 112 -69 243 -1 190 46 325
150 431 91 94 214 157 367 190 39 8 165 21 281 29 391 28 545 71 685 192 171
146 201 421 65 598 -29 38 -36 41 -52 22z"/>
<path d="M804 2512 c-65 -23 -139 -78 -196 -144 -62 -74 -61 -70 -38 -137 29
-88 28 -249 -5 -406 -13 -66 -25 -125 -25 -132 0 -7 26 -25 58 -40 74 -36 146
-108 180 -180 15 -32 31 -63 35 -70 15 -24 36 0 58 65 12 37 35 96 51 130 l30
64 -24 16 c-12 9 -43 30 -67 47 -25 16 -49 39 -54 50 -6 11 -13 27 -17 35 -11
22 -35 18 -38 -7 -5 -37 27 -82 84 -119 30 -20 54 -39 52 -42 -2 -4 -16 -40
-32 -80 l-29 -72 -32 48 c-39 57 -96 110 -159 147 -25 15 -46 28 -46 29 0 1
10 44 22 96 29 127 32 374 5 434 -16 37 -16 39 2 65 27 37 109 112 151 138 19
12 62 26 94 32 67 12 71 14 63 36 -8 20 -59 19 -123 -3z"/>
<path d="M3060 2354 c-15 -39 -12 -174 6 -235 20 -67 37 -97 134 -229 143
-194 192 -328 194 -530 1 -159 -19 -253 -75 -341 -83 -133 -116 -234 -75 -234
13 0 22 12 31 43 7 23 38 86 68 140 75 131 88 180 94 343 10 251 -44 404 -227
644 -94 124 -131 240 -113 349 7 37 6 59 -1 66 -16 16 -26 12 -36 -16z"/>
<path d="M2647 2174 c-16 -16 -4 -43 67 -148 75 -113 130 -176 224 -254 44
-37 52 -49 62 -98 6 -30 9 -74 5 -97 -8 -50 -42 -161 -62 -201 -29 -56 -98
-118 -204 -181 -135 -82 -193 -145 -201 -220 -2 -21 2 -30 15 -33 12 -3 23 9
38 45 28 67 58 94 184 173 61 38 127 86 147 107 73 76 128 228 128 352 -1 105
-20 144 -108 214 -78 62 -147 144 -219 262 -49 78 -63 92 -76 79z"/>
</g>
</svg>
