<?xml version="1.0" standalone="no"?>
<!DOCTYPE svg PUBLIC "-//W3C//DTD SVG 20010904//EN"
 "http://www.w3.org/TR/2001/REC-SVG-20010904/DTD/svg10.dtd">
<svg version="1.0" xmlns="http://www.w3.org/2000/svg"
 width="512.000000pt" height="512.000000pt" viewBox="0 0 512.000000 512.000000"
 preserveAspectRatio="xMidYMid meet">

<g transform="translate(0.000000,512.000000) scale(0.100000,-0.100000)"
fill="#000000" stroke="none">
<path d="M3105 4398 c-2 -7 -11 -78 -20 -158 -9 -80 -19 -162 -22 -182 l-6
-38 -98 0 c-54 0 -100 -4 -103 -8 -3 -5 -69 -514 -147 -1133 -79 -618 -144
-1126 -146 -1128 -4 -5 -372 27 -412 35 l-24 5 7 237 c3 130 9 307 12 393 l6
156 162 37 c88 21 165 42 169 46 10 8 109 1102 101 1109 -6 6 -408 -49 -422
-58 -5 -3 -14 -220 -21 -531 -7 -289 -14 -539 -17 -557 l-5 -31 -135 -33 c-74
-19 -140 -36 -145 -40 -12 -7 -110 -701 -100 -711 4 -4 87 -16 185 -25 l178
-17 -6 -271 c-3 -148 -9 -325 -12 -393 l-6 -122 -391 2 -391 3 -325 833 c-178
458 -322 834 -320 837 3 2 205 30 449 61 245 31 450 61 455 65 11 8 -127 1374
-140 1387 -3 3 -9 1 -14 -4 -8 -8 -676 -1275 -756 -1433 -30 -60 -45 -131
-171 -804 -81 -438 -134 -741 -128 -746 5 -5 218 -56 474 -115 l465 -106 408
0 c317 0 409 3 412 13 2 6 8 185 14 395 5 211 12 386 14 389 3 2 104 -6 226
-18 121 -13 222 -21 225 -18 2 2 68 510 147 1129 78 619 145 1129 149 1133 4
4 45 7 91 5 l85 -3 -48 -414 c-27 -228 -47 -415 -46 -417 2 -1 48 -7 103 -14
55 -7 102 -13 104 -15 2 -2 -33 -325 -78 -717 -45 -392 -81 -718 -81 -724 0
-7 101 -37 233 -69 127 -32 235 -60 239 -64 3 -3 -7 -172 -23 -375 -16 -203
-26 -373 -22 -377 9 -8 306 -89 329 -89 12 0 14 161 14 1170 l0 1170 23 0 c12
0 162 -16 334 -36 l312 -36 68 40 c96 56 176 140 221 231 34 70 37 81 37 165
0 79 -4 99 -28 150 -55 119 -145 197 -227 198 -67 1 -149 -68 -229 -192 -56
-87 -74 -154 -69 -258 5 -104 32 -166 108 -244 28 -29 50 -52 50 -53 0 -1
-127 13 -282 31 -156 18 -291 33 -300 34 -17 0 -18 39 -18 665 l0 665 -335 0
c-260 0 -337 -3 -340 -12z m645 -658 l0 -650 -27 1 c-45 0 -512 55 -517 60 -2
2 18 195 44 429 27 233 46 428 44 432 -3 4 -50 8 -105 8 -117 0 -107 -25 -79
205 11 88 20 161 20 163 0 1 140 2 310 2 l310 0 0 -650z m-2280 -287 c38 -356
67 -649 66 -651 -6 -5 -851 -113 -866 -110 -12 2 80 186 355 710 203 388 372
705 373 703 2 -2 35 -295 72 -652z m1796 495 c-3 -24 -24 -209 -47 -413 -23
-203 -44 -373 -48 -376 -3 -3 -45 -2 -93 4 -63 7 -88 13 -88 23 0 7 20 187 45
398 25 212 45 390 45 396 0 6 37 10 96 10 l96 0 -6 -42z m-751 -735 c-26 -290
-49 -530 -50 -531 -5 -6 -309 -81 -312 -78 -6 6 26 1079 32 1085 6 6 368 60
373 56 2 -2 -18 -241 -43 -532z m2061 511 c51 -24 129 -116 155 -182 67 -169
-9 -355 -194 -479 -43 -29 -85 -53 -92 -53 -8 0 -41 25 -74 56 -137 126 -165
284 -80 453 51 102 173 221 226 221 14 0 40 -7 59 -16z m-1101 -634 c138 -16
256 -30 263 -30 9 0 12 -239 12 -1160 0 -638 -3 -1160 -7 -1160 -18 1 -275 69
-280 74 -4 3 6 165 21 359 15 195 26 364 24 376 -3 21 -21 28 -233 80 -205 51
-230 59 -233 78 -3 20 143 1341 154 1391 2 12 10 22 17 22 6 0 125 -14 262
-30z m-2526 -1284 c171 -440 310 -803 309 -807 -2 -3 -201 39 -443 95 -325 75
-441 105 -443 116 -2 12 234 1298 253 1379 3 13 8 22 9 20 2 -2 144 -364 315
-803z m1163 311 c-5 -174 -11 -319 -13 -322 -4 -4 -329 25 -337 30 -3 2 89
669 93 674 2 1 61 17 132 35 l128 32 3 -65 c1 -36 -1 -209 -6 -384z"/>
</g>
</svg>
