<?xml version="1.0" standalone="no"?>
<!DOCTYPE svg PUBLIC "-//W3C//DTD SVG 20010904//EN"
 "http://www.w3.org/TR/2001/REC-SVG-20010904/DTD/svg10.dtd">
<svg version="1.0" xmlns="http://www.w3.org/2000/svg"
 width="512.000000pt" height="512.000000pt" viewBox="0 0 512.000000 512.000000"
 preserveAspectRatio="xMidYMid meet">

<g transform="translate(0.000000,512.000000) scale(0.100000,-0.100000)"
fill="#000000" stroke="none">
<path d="M1249 4398 c-137 -189 -161 -358 -74 -534 67 -137 220 -250 397 -294
74 -19 86 -25 79 -39 -5 -9 -11 -33 -15 -53 -8 -43 -8 -43 -39 -24 -12 8 -58
27 -102 42 -44 16 -120 52 -170 81 -229 136 -431 144 -605 24 -96 -65 -226
-268 -205 -318 4 -10 9 -26 10 -35 2 -25 106 -149 175 -210 81 -71 170 -124
255 -151 57 -18 94 -22 200 -22 165 0 243 23 458 133 4 2 7 -43 7 -100 0 -81
10 -152 46 -333 24 -126 60 -324 80 -440 19 -115 50 -262 68 -325 59 -201 66
-308 30 -422 -20 -63 -37 -76 -54 -40 -28 60 -61 172 -83 276 -20 102 -22 138
-22 444 0 220 -3 332 -10 332 -6 0 -39 -17 -74 -37 -97 -58 -230 -190 -341
-339 -79 -106 -118 -148 -192 -207 -153 -123 -244 -207 -318 -296 -142 -171
-220 -377 -220 -580 0 -71 3 -82 31 -120 47 -66 100 -85 218 -78 104 5 161 21
144 38 -8 8 -26 8 -63 0 -132 -28 -238 -4 -280 64 -21 34 -22 44 -17 139 10
157 54 291 141 426 57 88 206 243 325 337 139 110 154 125 254 258 109 145
208 246 301 308 39 26 71 45 72 44 1 -1 -1 -76 -4 -167 -15 -375 20 -653 108
-846 19 -43 34 -64 46 -64 10 0 14 -3 11 -7 -4 -3 3 -22 15 -41 l21 -34 -21
13 c-32 20 -37 4 -18 -56 51 -161 213 -294 434 -352 84 -22 118 -26 257 -27
182 -1 271 14 419 70 177 68 343 192 458 343 31 41 48 56 43 41 -28 -96 -133
-209 -271 -292 -73 -44 -215 -111 -389 -185 -42 -17 -71 -36 -73 -46 -6 -29
31 -20 196 44 394 153 597 222 714 240 48 7 100 7 182 -1 267 -26 629 48 716
146 18 21 30 46 30 63 l0 27 -117 12 c-243 26 -371 100 -444 257 -16 33 -50
148 -77 255 -54 212 -94 314 -166 413 -73 102 -210 223 -221 195 -3 -7 4 -67
15 -133 11 -66 22 -173 25 -240 4 -130 5 -135 -25 120 -15 126 -59 305 -74
305 -9 0 -15 -25 -19 -77 -4 -43 -13 -100 -21 -128 -16 -55 -21 -33 -6 29 16
71 33 297 23 307 -9 9 -85 -63 -126 -121 -38 -53 0 9 52 85 69 101 116 202
131 283 12 59 10 116 -7 232 l-6 45 69 -65 c38 -36 93 -77 121 -93 70 -38 192
-67 277 -67 193 1 425 111 574 275 57 62 109 152 95 166 -4 4 -26 4 -48 -1
-100 -23 -199 2 -283 71 -107 89 -165 129 -198 135 -52 10 -111 -18 -227 -104
-119 -88 -216 -152 -231 -152 -6 0 1 8 14 17 14 10 68 51 120 93 167 132 291
181 384 150 20 -6 78 -46 129 -87 110 -91 154 -112 226 -113 58 0 131 18 131
32 0 18 -49 105 -93 164 -174 237 -374 296 -611 180 -50 -24 -141 -80 -203
-125 -89 -65 -119 -81 -147 -81 -19 0 -46 -4 -60 -10 l-26 -10 0 60 c0 57 -1
60 -32 77 l-33 17 72 7 c283 27 502 234 503 477 0 114 -52 254 -122 330 -29
30 -52 29 -44 -2 15 -60 -40 -215 -105 -295 -60 -75 -176 -142 -278 -161 -97
-18 -127 -14 -170 25 -45 41 -87 60 -155 70 -38 5 -55 14 -75 38 -78 93 -109
120 -170 150 -63 31 -71 32 -196 34 -71 0 -159 4 -195 8 -153 16 -349 -74
-427 -197 -13 -21 -31 -38 -41 -38 -30 -1 -96 -37 -136 -75 l-39 -38 -77 6
c-80 6 -170 35 -230 72 -58 37 -129 121 -165 196 -31 65 -42 104 -60 212 -3
20 -10 37 -15 37 -6 0 -24 -19 -41 -42z m99 -242 c43 -83 126 -169 199 -209
61 -33 164 -57 245 -57 54 0 60 3 107 44 44 39 100 66 138 66 6 0 23 20 37 44
71 121 257 208 406 190 36 -4 121 -8 190 -8 113 -1 130 -4 181 -27 50 -24 73
-44 180 -159 16 -18 41 -31 65 -35 80 -12 115 -27 159 -65 51 -44 63 -46 180
-30 99 14 202 67 276 142 64 64 124 174 137 246 4 24 12 43 17 44 16 2 63 -93
81 -163 64 -249 -107 -484 -396 -545 -108 -22 -120 -19 -140 41 -28 81 -58
133 -108 184 -44 45 -54 50 -166 80 -72 20 -122 29 -128 23 -13 -13 3 -23 129
-76 61 -26 120 -57 131 -69 27 -30 51 -78 86 -177 28 -76 34 -85 64 -94 30 -8
32 -11 32 -58 0 -27 -5 -59 -11 -70 -18 -33 3 -40 49 -18 22 11 60 20 83 20
36 0 54 9 128 64 201 149 303 195 433 196 135 0 232 -52 341 -185 58 -70 113
-162 103 -173 -4 -3 -33 -8 -65 -10 -76 -6 -120 14 -238 110 -51 41 -110 80
-132 86 -119 36 -226 -8 -449 -186 -55 -44 -114 -88 -131 -98 -43 -26 -40 -44
8 -44 51 0 124 40 264 144 63 47 134 95 160 107 41 20 50 21 86 10 24 -7 74
-41 123 -82 117 -100 170 -124 279 -124 l85 0 -20 -35 c-34 -60 -167 -182
-249 -229 -286 -162 -549 -143 -755 54 l-73 70 -2 82 c-2 79 -3 82 -43 130
-133 157 -342 141 -507 -38 -77 -82 -145 -212 -178 -334 -30 -113 -30 -297 -1
-417 26 -105 61 -193 108 -272 19 -32 33 -61 30 -63 -3 -3 -35 -9 -73 -13 -37
-4 -108 -16 -156 -26 -88 -17 -90 -17 -180 4 -51 12 -102 22 -115 22 -44 0
-136 -60 -119 -76 3 -4 35 -1 70 6 60 11 69 10 139 -14 89 -31 146 -32 256 -6
83 20 182 26 241 14 24 -5 39 -20 70 -68 114 -182 184 -399 161 -501 -16 -72
-100 -114 -245 -122 -93 -5 -145 6 -145 30 0 7 41 64 91 127 50 63 99 131 110
152 41 79 12 171 -58 184 -118 22 -201 -88 -226 -302 l-10 -91 -33 19 c-43 25
-134 26 -199 1 l-50 -19 -1 100 c0 127 -25 196 -93 267 -38 39 -54 49 -80 49
-50 0 -87 -24 -105 -70 -38 -95 -10 -178 105 -306 81 -92 87 -117 32 -140 -29
-13 -47 -14 -95 -5 -278 49 -284 298 -18 671 94 131 180 299 212 415 30 108
33 365 5 465 -65 235 -247 431 -417 448 -124 12 -211 -31 -253 -126 -33 -74
-55 -142 -63 -192 -6 -39 -8 -40 -118 -95 -140 -69 -239 -95 -365 -95 -156 0
-270 42 -404 149 -60 48 -157 148 -157 163 0 2 21 5 48 5 76 2 179 56 292 153
108 92 131 93 226 9 142 -126 237 -171 388 -186 61 -5 68 -4 65 11 -3 11 -43
34 -114 64 -127 55 -188 93 -265 168 -124 120 -232 114 -390 -22 -134 -115
-199 -146 -265 -124 -40 13 -40 20 1 100 104 201 278 301 473 271 89 -14 152
-38 272 -107 53 -30 131 -66 175 -80 43 -15 96 -40 117 -56 45 -35 61 -29 54
21 -8 63 3 85 48 91 39 5 40 6 48 55 31 191 39 203 194 300 149 94 137 114
-26 43 -152 -65 -212 -139 -219 -270 l-4 -68 -32 0 c-50 0 -171 37 -249 77
-90 45 -193 145 -230 224 -68 145 -53 299 45 453 l32 48 18 -77 c10 -42 35
-109 56 -149z m399 -498 c-3 -7 -5 -2 -5 12 0 14 2 19 5 13 2 -7 2 -19 0 -25z
m-639 -187 c18 -5 63 -36 100 -69 73 -65 148 -115 229 -152 29 -13 52 -25 50
-26 -7 -7 -131 36 -170 59 -23 14 -80 57 -126 96 -46 39 -94 74 -107 77 -49
12 -90 -6 -192 -85 -105 -82 -194 -132 -234 -130 -23 1 -23 1 2 8 47 15 85 39
175 112 133 107 195 132 273 110z m2188 -106 c40 -17 111 -80 130 -116 18 -37
18 -129 -1 -156 -13 -18 -27 -21 -112 -25 -123 -4 -186 -31 -221 -93 -32 -57
-27 -120 11 -149 64 -47 220 -12 248 56 11 27 10 36 -8 69 l-20 37 56 4 c31 2
59 -1 63 -7 15 -21 20 -122 10 -187 -13 -84 -45 -156 -132 -289 -98 -151 -122
-201 -128 -275 -7 -92 15 -86 58 16 30 74 115 209 140 225 11 7 11 -3 -11
-183 -12 -101 -48 -245 -84 -338 -28 -71 -104 -214 -114 -214 -4 0 -12 19 -19
43 -18 61 -106 234 -146 288 -24 33 -44 48 -66 53 -62 12 -179 6 -262 -14 -87
-21 -159 -25 -193 -10 -13 5 -2 7 30 3 31 -3 87 3 149 16 55 12 134 21 177 21
43 0 80 3 83 8 2 4 -11 32 -31 62 -216 339 -210 738 15 1015 112 138 256 191
378 140z m-1244 -33 c121 -59 225 -198 280 -372 20 -66 23 -94 22 -235 0 -144
-3 -169 -27 -248 -35 -115 -109 -260 -189 -372 -36 -49 -84 -123 -107 -163
-43 -71 -100 -218 -101 -257 -1 -12 -8 -1 -19 25 -10 25 -38 88 -63 140 l-44
95 34 105 c30 90 35 119 36 205 1 118 -12 154 -94 255 -70 86 -106 167 -119
263 -17 123 -15 142 20 182 25 29 38 35 69 35 48 0 55 -11 35 -49 -24 -48 -20
-96 13 -121 24 -19 36 -22 104 -18 81 5 116 20 144 63 10 16 14 34 10 50 -9
37 -92 114 -155 143 -47 22 -63 24 -130 19 -42 -3 -84 -8 -93 -12 -16 -6 -17
-3 -12 26 12 62 66 191 93 221 60 67 182 75 293 20z m-160 -298 c35 -18 115
-90 129 -116 14 -26 -6 -57 -46 -74 -40 -16 -128 -19 -156 -4 -23 13 -26 67
-4 96 20 27 19 48 -5 69 -27 25 -80 23 -126 -4 l-35 -21 3 22 c4 29 56 46 141
47 44 1 79 -5 99 -15z m1534 1 c-11 -8 -38 -15 -60 -15 -89 0 -105 -19 -61
-72 32 -37 31 -51 -1 -77 -52 -41 -152 -51 -190 -20 -16 13 -18 56 -5 92 25
66 115 104 220 94 31 -3 65 -1 76 3 32 13 42 11 21 -5z m-1596 -663 c11 -29
20 -76 20 -105 0 -52 -35 -214 -50 -230 -4 -4 -13 27 -19 70 -7 43 -28 160
-47 260 -19 100 -34 185 -34 189 0 21 113 -139 130 -184z m1440 -12 c-6 -11
-13 -20 -16 -20 -2 0 0 9 6 20 6 11 13 20 16 20 2 0 0 -9 -6 -20z m366 -142
c121 -132 165 -228 235 -518 58 -242 103 -328 210 -399 75 -50 183 -85 314
-102 55 -7 102 -14 104 -15 12 -10 -36 -57 -79 -79 -141 -71 -327 -100 -593
-92 -150 5 -208 3 -267 -9 -59 -12 -306 -91 -435 -139 -11 -4 7 9 39 30 147
91 225 167 270 265 26 56 37 160 16 160 -5 0 -33 -35 -61 -77 -62 -93 -171
-204 -254 -260 -376 -253 -906 -256 -1175 -6 -48 44 -134 173 -116 173 3 0 26
-16 52 -35 25 -19 76 -44 114 -56 93 -28 151 -17 235 47 82 62 103 71 158 72
26 1 65 6 87 12 27 7 69 8 134 1 74 -7 108 -6 156 5 67 15 137 58 163 98 24
36 21 53 -10 62 -24 6 -20 8 32 16 80 11 148 36 189 70 45 37 60 102 46 193
l-10 64 51 67 c86 115 209 399 209 487 0 38 10 10 26 -69 26 -136 36 -306 24
-416 -12 -107 -48 -245 -80 -308 -22 -43 -25 -60 -10 -60 29 0 117 195 146
325 24 103 24 331 0 460 -9 50 -16 96 -16 103 0 18 45 -15 96 -70z m-1345
-367 c55 -58 82 -137 83 -241 1 -65 -3 -93 -17 -119 -25 -44 -10 -61 30 -34
87 61 207 69 282 20 48 -32 47 -34 55 78 14 192 81 315 170 315 37 0 76 -41
76 -80 0 -42 -27 -90 -108 -192 -91 -114 -115 -154 -109 -179 4 -14 2 -19 -8
-15 -7 2 -59 10 -114 16 -96 12 -195 6 -288 -17 -18 -4 -21 -1 -16 16 9 37 -5
66 -72 142 -123 139 -146 233 -77 312 27 30 71 22 113 -22z m-387 -279 l5 -77
-13 80 c-7 45 -16 96 -20 115 l-6 35 15 -38 c8 -21 17 -73 19 -115z m121 -154
c22 -15 63 -32 90 -38 93 -22 92 -21 57 -36 -18 -7 -32 -19 -32 -26 0 -20 70
-85 108 -101 l34 -14 -49 -29 c-80 -47 -120 -64 -151 -64 -66 0 -165 54 -213
114 l-22 28 31 61 c27 57 38 87 56 170 l7 29 22 -33 c12 -18 40 -46 62 -61z
m788 -63 c59 -15 107 -31 107 -34 0 -15 -42 -52 -83 -73 -38 -21 -57 -23 -192
-24 -82 -1 -175 -5 -206 -9 -38 -5 -58 -4 -63 4 -4 6 -25 11 -47 11 -22 0 -56
9 -77 19 -36 18 -79 58 -71 65 6 5 159 54 204 65 22 6 103 9 180 7 114 -2 160
-8 248 -31z m-603 -239 c-14 -17 -79 -41 -87 -32 -4 3 0 6 8 6 8 0 30 9 49 19
43 24 46 25 30 7z"/>
</g>
</svg>
