<?xml version="1.0" standalone="no"?>
<!DOCTYPE svg PUBLIC "-//W3C//DTD SVG 20010904//EN"
 "http://www.w3.org/TR/2001/REC-SVG-20010904/DTD/svg10.dtd">
<svg version="1.0" xmlns="http://www.w3.org/2000/svg"
 width="512.000000pt" height="512.000000pt" viewBox="0 0 512.000000 512.000000"
 preserveAspectRatio="xMidYMid meet">

<g transform="translate(0.000000,512.000000) scale(0.100000,-0.100000)"
fill="#000000" stroke="none">
<path d="M1258 4876 c-64 -23 -124 -64 -172 -117 -82 -92 -113 -152 -221 -437
-15 -40 -37 -85 -50 -100 -60 -72 -75 -104 -75 -161 0 -41 7 -67 25 -99 14
-24 30 -73 35 -109 l11 -64 -58 -57 c-96 -95 -153 -228 -173 -407 -5 -49 -10
-184 -10 -300 0 -237 -10 -313 -70 -561 -49 -201 -70 -319 -70 -395 0 -62 43
-239 108 -449 22 -69 69 -222 106 -340 37 -118 86 -273 108 -345 92 -294 97
-339 44 -408 -62 -82 -68 -104 -40 -163 21 -44 84 -79 127 -70 21 4 45 -1 75
-15 38 -19 56 -21 135 -17 103 6 175 34 219 86 20 24 34 30 81 34 56 5 57 4
57 -21 0 -39 26 -71 58 -71 16 0 43 13 63 29 l36 30 17 -40 c25 -57 54 -67
208 -77 273 -17 398 33 398 158 0 75 -62 228 -119 292 l-29 33 58 18 c109 32
188 115 306 324 101 178 128 272 163 578 26 218 39 278 60 269 67 -29 102 -35
167 -32 l71 3 -32 -40 c-43 -53 -60 -88 -79 -160 -35 -140 -30 -281 21 -586
29 -178 27 -218 -17 -259 -16 -15 -62 -41 -102 -57 -144 -59 -210 -119 -212
-194 -1 -60 29 -82 109 -77 54 3 62 1 82 -23 12 -14 39 -31 61 -37 48 -15 123
3 215 50 56 29 74 32 180 38 179 10 197 29 197 215 0 110 3 127 35 220 24 69
38 134 45 205 25 247 35 278 139 400 82 96 131 187 151 278 8 34 18 62 22 62
13 0 97 -111 135 -179 160 -283 208 -622 137 -971 -29 -142 -43 -178 -99 -248
-63 -78 -69 -95 -45 -124 17 -22 19 -22 91 -8 41 8 106 15 145 15 71 0 72 -1
130 -48 126 -101 200 -123 311 -88 78 24 163 74 163 96 0 8 -10 23 -22 33
-137 109 -183 189 -181 317 1 66 9 105 46 220 31 96 48 172 56 243 15 142 13
401 -4 487 -11 59 -11 77 0 115 18 57 44 310 52 500 21 506 -154 847 -576
1119 -118 75 -158 83 -476 90 -270 7 -283 8 -354 33 -99 36 -209 101 -366 217
-71 52 -183 130 -247 174 -161 108 -231 176 -430 420 -95 117 -213 253 -263
302 -126 127 -266 210 -420 251 -63 17 -199 17 -247 0z m278 -80 c201 -68 328
-177 590 -506 184 -232 287 -334 449 -441 72 -48 189 -130 260 -183 153 -113
280 -185 390 -222 77 -26 90 -28 365 -34 265 -6 289 -8 340 -29 133 -54 337
-222 439 -360 135 -182 201 -401 201 -671 0 -102 -20 -362 -36 -478 l-6 -43
-23 33 c-49 71 -136 111 -242 110 -185 -1 -313 -92 -313 -223 l0 -44 -29 52
c-32 59 -69 108 -149 201 -61 71 -97 83 -108 35 -45 -210 -75 -277 -168 -381
-103 -114 -129 -181 -146 -375 -12 -140 -20 -179 -56 -272 -24 -60 -28 -88
-32 -205 -2 -74 -8 -139 -13 -145 -6 -5 -60 -12 -122 -16 -104 -5 -119 -8
-202 -46 -146 -66 -190 -65 -190 4 0 34 -2 38 -25 36 -14 -1 -51 -9 -83 -19
-44 -13 -60 -15 -69 -6 -28 28 55 97 176 147 75 31 129 72 150 114 29 56 28
103 -5 297 -27 154 -33 217 -33 339 -1 172 13 234 66 305 64 84 61 79 48 94
-9 12 -6 16 22 20 18 3 121 20 228 37 351 55 464 94 557 188 112 114 222 418
224 618 2 168 -94 330 -259 440 -48 32 -102 71 -119 87 -34 29 -59 29 -70 1
-8 -22 35 -64 133 -130 188 -127 269 -279 243 -460 -31 -224 -124 -448 -220
-529 -79 -67 -192 -100 -564 -162 -82 -14 -204 -27 -270 -30 -110 -5 -123 -4
-153 15 -81 52 -98 197 -49 436 98 485 110 748 46 1015 -75 317 -367 575 -601
531 -68 -12 -124 -39 -175 -84 -28 -24 -35 -27 -29 -12 18 43 45 146 51 197 8
61 -15 200 -41 251 -23 44 -171 231 -197 249 -14 9 -34 0 -41 -18 -8 -21 2
-38 83 -134 39 -46 71 -87 71 -92 0 -4 -9 -8 -19 -8 -11 0 -31 -14 -45 -31
-37 -43 -37 -129 -1 -164 28 -29 54 -31 95 -10 30 15 30 15 30 -13 0 -94 -81
-291 -205 -502 -84 -142 -98 -157 -147 -165 -60 -10 -108 -62 -132 -143 -11
-34 -25 -67 -32 -73 -9 -7 -38 4 -106 43 l-93 53 60 7 c157 17 285 138 285
268 -1 57 -46 171 -98 248 l-40 59 56 16 c75 21 173 85 202 132 34 55 39 132
10 168 -37 47 -76 61 -170 59 -47 -1 -109 -6 -139 -12 -73 -14 -153 -12 -231
5 -36 8 -96 14 -134 15 -61 0 -67 2 -61 18 4 9 26 69 49 132 52 139 75 186
131 266 109 153 251 195 441 130z m324 -592 c11 -13 9 -19 -13 -42 -33 -33
-41 -25 -38 36 1 26 32 30 51 6z m-744 -40 c51 -11 105 -15 154 -12 41 3 66 2
54 -2 -11 -4 -35 -25 -53 -46 -31 -35 -33 -41 -29 -95 l4 -57 -42 0 c-24 0
-52 -3 -63 -7 -17 -5 -18 -3 -10 32 22 98 -44 173 -152 173 -57 0 -100 -21
-142 -70 -40 -47 -50 -35 -22 23 35 72 143 93 301 61z m433 10 c106 -21 57
-145 -83 -210 -64 -30 -98 -30 -131 -1 -31 27 -37 78 -11 106 20 22 84 36 117
26 18 -6 21 -13 16 -46 -3 -27 -1 -44 9 -54 30 -29 64 12 64 76 0 36 -48 89
-80 89 -12 0 -18 5 -15 10 7 11 67 13 114 4z m-500 -120 c25 -32 26 -55 6 -94
-32 -62 -89 -76 -156 -38 -41 23 -46 38 -29 83 18 48 58 75 111 75 39 0 51 -4
68 -26z m206 -183 c52 -24 107 -81 145 -152 35 -65 35 -69 15 -69 -9 0 -32
-11 -53 -25 -72 -47 -173 -56 -309 -28 l-83 17 0 33 c0 33 18 83 30 83 4 0 10
-14 14 -31 5 -26 10 -30 33 -27 25 3 28 7 26 36 -1 30 1 33 20 27 12 -4 38 -9
57 -12 19 -3 41 -14 48 -24 18 -26 38 -24 67 6 27 27 35 91 13 113 -19 19 -64
14 -95 -11 l-28 -24 -49 22 -49 21 37 23 c69 43 105 48 161 22z m1050 -31 c85
-41 213 -165 268 -260 82 -142 112 -310 104 -580 -6 -196 -16 -274 -73 -570
-43 -221 -45 -348 -6 -434 20 -43 21 -51 8 -58 -23 -13 -34 -64 -66 -313 -16
-126 -39 -263 -50 -303 -36 -130 -161 -352 -248 -444 -76 -80 -133 -101 -262
-96 -95 3 -95 3 -95 -21 0 -21 9 -27 57 -43 93 -31 158 -110 202 -245 25 -77
19 -123 -21 -146 -26 -15 -35 -16 -52 -5 -17 10 -23 9 -39 -5 -10 -9 -38 -20
-63 -23 -62 -8 -259 12 -275 28 -8 8 -17 53 -21 108 -8 90 -9 95 -32 98 -26 4
-41 -12 -41 -43 0 -28 -71 -128 -82 -117 -16 16 11 93 61 177 100 166 108 201
130 550 25 394 44 503 132 773 32 100 70 238 84 305 13 67 29 138 35 157 17
59 11 121 -21 223 -49 159 -106 394 -123 508 -20 131 -20 351 -2 439 38 177
139 318 262 365 61 23 148 14 229 -25z m-1336 -16 c2 -2 -6 -16 -17 -31 -11
-16 -26 -44 -34 -63 l-14 -35 -17 67 c-25 99 -26 98 31 80 26 -8 49 -16 51
-18z m-129 -151 c7 -21 54 -128 105 -238 54 -116 110 -256 135 -335 48 -155
99 -267 164 -360 43 -62 44 -65 24 -73 -19 -7 -20 -13 -15 -80 6 -81 33 -164
99 -312 76 -169 83 -196 83 -325 -1 -106 -5 -133 -55 -330 l-55 -215 4 -140
c6 -217 5 -340 -4 -460 l-7 -110 41 -108 c54 -141 54 -141 -12 -133 l-54 7
-15 -40 c-21 -52 -78 -82 -170 -89 -93 -6 -137 3 -148 34 -11 27 -41 32 -60 9
-27 -33 -90 -5 -90 40 0 13 18 45 40 71 22 27 43 64 46 82 9 47 -2 125 -29
218 -64 211 -172 562 -237 764 -158 499 -160 522 -61 916 58 232 63 272 71
594 8 331 18 398 75 510 21 42 99 140 110 140 2 0 9 -17 15 -37z m594 -184
c-40 -79 -126 -128 -222 -129 -80 0 -119 17 -166 71 -38 44 -71 98 -64 104 2
2 41 -2 87 -10 142 -25 296 2 352 61 l24 26 3 -46 c2 -28 -3 -57 -14 -77z
m306 -9 c-14 -72 -11 -294 5 -409 19 -129 72 -350 126 -528 l41 -132 -17 -56
c-11 -41 -20 -55 -30 -51 -23 8 -224 145 -295 199 -140 108 -256 238 -329 368
-24 43 -131 341 -131 365 0 10 75 -28 150 -76 45 -30 93 -52 107 -52 38 0 76
47 102 125 25 74 40 91 96 106 59 15 78 33 131 116 26 41 49 74 50 72 1 -1 -2
-22 -6 -47z m-176 -1056 c54 -41 143 -102 197 -137 79 -50 99 -67 99 -86 0
-35 -25 -128 -86 -315 -31 -93 -64 -207 -74 -255 -22 -99 -46 -306 -55 -466
-9 -166 -35 -414 -46 -444 -6 -14 -38 -72 -71 -128 l-61 -102 -22 62 c-13 34
-33 89 -45 122 l-22 60 18 132 c16 119 16 148 4 287 -15 184 -11 227 39 422
99 378 96 457 -28 738 -66 147 -91 227 -91 287 l0 36 73 -70 c39 -38 116 -103
171 -143z m2804 -539 c50 -21 79 -51 108 -108 l25 -48 -68 -68 c-104 -104
-207 -135 -300 -90 -70 34 -128 137 -115 204 7 37 62 90 114 108 58 21 188 21
236 2z m165 -465 c-1 -232 -13 -324 -65 -478 -40 -120 -43 -133 -43 -242 0
-108 2 -119 30 -175 17 -32 54 -83 83 -113 30 -29 52 -55 49 -58 -12 -12 -121
-44 -150 -44 -43 0 -109 33 -172 87 -88 74 -159 89 -275 58 -30 -8 -55 -13
-57 -12 -1 2 15 25 37 51 24 32 45 74 58 120 86 298 86 639 -1 905 l-23 69 45
-39 c113 -100 278 -83 415 43 49 44 51 45 60 25 5 -12 9 -101 9 -197z"/>
</g>
</svg>
