<?xml version="1.0" standalone="no"?>
<!DOCTYPE svg PUBLIC "-//W3C//DTD SVG 20010904//EN"
 "http://www.w3.org/TR/2001/REC-SVG-20010904/DTD/svg10.dtd">
<svg version="1.0" xmlns="http://www.w3.org/2000/svg"
 width="512.000000pt" height="512.000000pt" viewBox="0 0 512.000000 512.000000"
 preserveAspectRatio="xMidYMid meet">

<g transform="translate(0.000000,512.000000) scale(0.100000,-0.100000)"
fill="#000000" stroke="none">
<path d="M628 4860 c-85 -22 -191 -80 -246 -133 -90 -87 -135 -238 -113 -381
16 -110 43 -180 146 -381 101 -195 132 -278 143 -376 6 -52 11 -64 26 -67 18
-4 19 1 13 61 -9 98 -48 202 -147 392 -121 231 -143 299 -144 440 -1 86 3 122
19 165 52 145 272 270 474 270 65 0 188 -29 270 -63 129 -53 236 -131 525
-381 193 -166 240 -240 203 -313 -25 -47 -53 -66 -307 -203 -322 -174 -405
-223 -525 -312 -233 -172 -367 -353 -426 -573 -26 -97 -31 -308 -10 -425 59
-330 296 -835 535 -1140 129 -165 246 -277 402 -386 82 -57 847 -446 1059
-539 135 -58 271 -105 390 -134 44 -10 119 -30 166 -44 292 -86 625 -46 876
105 120 72 254 223 269 305 9 50 -11 107 -49 137 l-32 26 28 0 c41 0 79 46
110 132 40 112 47 145 53 253 12 188 -25 318 -129 447 -80 100 -191 267 -233
350 -37 73 -104 263 -104 293 0 12 10 4 30 -23 19 -26 75 -71 158 -125 76 -50
146 -105 170 -133 87 -102 132 -224 132 -361 0 -109 14 -105 89 24 88 153 145
340 162 535 17 198 -9 365 -98 633 -45 133 -47 145 -47 255 -1 114 0 117 36
190 21 41 76 122 124 180 165 202 231 317 279 484 81 283 -28 567 -261 683
-72 35 -85 38 -158 37 -211 -2 -395 -125 -734 -491 -152 -165 -179 -172 -378
-98 -119 45 -189 60 -378 79 -190 20 -375 21 -421 2 -50 -21 -69 -56 -62 -115
13 -113 117 -259 360 -509 255 -262 327 -387 327 -570 0 -105 13 -174 50 -270
36 -93 122 -232 145 -232 21 0 19 22 -4 51 -33 43 -76 122 -109 200 -27 65
-33 95 -41 215 -19 260 -69 350 -366 654 -199 204 -237 252 -290 360 -43 90
-45 131 -9 167 l26 26 177 -6 c231 -8 369 -28 516 -73 198 -61 218 -65 265
-59 24 3 62 15 85 26 22 12 131 113 245 229 267 270 378 346 543 372 62 9 81
8 132 -7 81 -23 136 -57 191 -118 90 -101 138 -231 137 -372 -2 -175 -71 -349
-213 -535 -44 -58 -109 -143 -145 -190 -139 -181 -146 -299 -41 -638 68 -217
80 -285 80 -457 1 -212 -33 -361 -126 -554 l-42 -86 -7 35 c-4 19 -12 59 -18
89 -30 145 -138 281 -301 378 -84 51 -150 106 -169 142 -9 16 -4 19 44 30 107
24 195 110 195 191 0 48 -31 110 -69 143 -39 32 -103 36 -158 10 -82 -39 -126
-175 -106 -333 22 -170 124 -417 239 -574 87 -120 82 -111 57 -98 -26 15 -187
15 -302 2 -232 -26 -340 -111 -341 -266 0 -80 33 -146 110 -217 63 -58 126
-87 192 -87 51 0 49 15 -9 90 -38 49 -46 68 -47 102 -1 41 0 43 40 57 67 23
94 6 129 -82 15 -40 28 -83 28 -97 0 -14 -5 -112 -10 -219 -11 -249 2 -235
-202 -226 -137 6 -151 5 -236 -20 -180 -51 -238 -60 -307 -48 -108 18 -171 56
-292 176 l-109 108 -23 -22 c-12 -11 -34 -48 -50 -82 -50 -111 -35 -246 41
-372 l35 -57 -58 33 c-130 73 -273 203 -311 282 -80 166 -54 285 93 433 87 87
181 145 331 204 154 61 242 109 294 159 117 114 99 268 -58 484 -88 122 -182
205 -315 281 -53 30 -72 46 -64 54 6 6 9 42 7 89 -3 66 -9 86 -31 120 -56 85
-199 116 -284 61 -74 -48 -104 -127 -76 -198 24 -61 141 -110 264 -110 57 0
79 -5 131 -31 192 -97 341 -248 428 -432 55 -118 48 -206 -22 -282 -45 -48
-118 -89 -299 -166 -138 -58 -196 -91 -283 -158 -65 -50 -139 -143 -170 -211
-42 -93 -30 -238 26 -330 52 -85 179 -197 319 -281 45 -27 78 -49 74 -49 -29
0 -311 123 -516 226 -135 67 -342 170 -460 228 -235 116 -342 186 -483 317
-268 249 -506 637 -656 1072 -187 543 -82 923 344 1239 95 71 346 217 583 339
79 41 164 90 190 109 123 94 111 202 -42 347 -107 102 -353 308 -437 365 -91
63 -233 131 -315 152 -84 22 -249 20 -336 -4z m3407 -2104 c71 -30 97 -129 52
-197 -29 -45 -101 -79 -178 -86 l-62 -6 5 80 c6 101 41 182 91 207 40 19 49
20 92 2z m-1458 -77 c49 -31 67 -71 69 -159 l1 -75 -102 6 c-114 6 -183 32
-219 81 -17 24 -18 32 -8 66 30 99 162 141 259 81z m1579 -958 c94 -53 130
-185 79 -288 -25 -50 -76 -108 -62 -71 28 77 11 138 -39 138 -29 0 -121 -82
-156 -138 l-21 -34 -28 49 c-16 26 -29 55 -29 64 0 8 -11 26 -25 39 -19 18
-36 23 -77 23 -131 0 -164 -74 -88 -192 37 -57 38 -62 18 -55 -123 37 -218
147 -218 252 0 172 144 243 480 239 111 -2 130 -5 166 -26z m128 -541 c-32
-144 -74 -224 -126 -234 -37 -7 -88 -43 -88 -62 0 -9 11 -14 34 -14 47 0 76
-27 83 -77 8 -60 -33 -127 -135 -224 -100 -95 -228 -162 -387 -205 -89 -24
-119 -27 -270 -27 -154 -1 -179 2 -270 26 -202 54 -327 143 -395 281 -54 109
-53 251 3 319 l22 27 100 -97 c124 -120 200 -162 310 -170 77 -6 112 0 285 49
101 29 110 29 250 24 134 -6 147 -5 178 14 43 26 53 56 58 168 4 91 24 234 43
300 15 51 47 96 96 137 76 62 93 29 44 -84 -33 -76 -24 -87 40 -47 49 31 107
99 123 145 12 34 13 30 16 -69 2 -71 -3 -129 -14 -180z"/>
</g>
</svg>
