<?xml version="1.0" standalone="no"?>
<!DOCTYPE svg PUBLIC "-//W3C//DTD SVG 20010904//EN"
 "http://www.w3.org/TR/2001/REC-SVG-20010904/DTD/svg10.dtd">
<svg version="1.0" xmlns="http://www.w3.org/2000/svg"
 width="512.000000pt" height="512.000000pt" viewBox="0 0 512.000000 512.000000"
 preserveAspectRatio="xMidYMid meet">

<g transform="translate(0.000000,512.000000) scale(0.100000,-0.100000)"
fill="#000000" stroke="none">
<path d="M1985 4614 c-348 -26 -638 -213 -802 -519 l-32 -59 -78 -2 c-184 -4
-319 -115 -389 -321 -35 -99 -39 -262 -10 -358 60 -202 223 -328 456 -351 l70
-7 44 -61 c24 -33 64 -84 89 -112 l46 -51 -43 -56 c-61 -78 -123 -202 -172
-342 -36 -105 -45 -120 -65 -123 -67 -7 -172 -38 -236 -69 -348 -169 -342
-630 13 -962 99 -93 212 -167 293 -192 86 -26 227 -40 326 -32 93 7 125 17
125 38 0 12 -16 15 -92 15 -230 0 -346 52 -546 244 -146 140 -220 279 -229
431 -6 99 19 176 80 243 54 57 107 84 184 90 l63 5 0 -55 c0 -182 79 -413 203
-598 79 -117 305 -340 344 -340 5 0 20 22 33 50 13 27 25 49 26 47 1 -1 -4
-31 -11 -67 -29 -135 -13 -336 35 -430 47 -93 146 -170 219 -170 63 0 119 47
152 126 l22 54 22 -48 c35 -76 115 -132 188 -132 34 0 98 36 125 69 46 59 85
172 96 286 6 55 -4 181 -19 251 l-6 29 21 -27 c12 -16 30 -28 40 -28 28 0 135
76 186 133 191 212 294 514 281 821 -8 191 -39 318 -118 481 -22 44 -32 71
-23 60 27 -34 86 -156 124 -255 l36 -95 61 -7 c130 -14 229 -103 273 -246 37
-120 21 -240 -45 -326 -15 -20 -25 -39 -21 -43 12 -12 54 20 86 64 59 82 75
191 45 303 -8 30 -45 116 -83 190 -103 204 -142 344 -142 515 0 179 57 327
174 452 153 164 351 254 560 253 81 -1 101 -5 184 -38 218 -88 334 -237 334
-432 0 -173 -98 -315 -251 -365 -65 -21 -150 -16 -236 14 -70 25 -75 29 -50
43 11 6 41 32 66 57 82 80 85 166 10 234 -99 89 -247 64 -327 -55 -58 -85 -54
-161 17 -345 87 -228 110 -298 125 -386 33 -192 -14 -372 -145 -557 -102 -144
-396 -401 -540 -472 l-63 -32 -244 -6 c-135 -4 -247 -10 -251 -14 -20 -19 35
-23 257 -17 292 8 286 6 480 151 276 205 447 412 517 625 23 69 26 96 26 205
0 151 -14 210 -107 445 -96 241 -103 307 -42 396 88 129 319 92 319 -51 0 -53
-39 -103 -117 -150 l-58 -34 25 -22 c46 -39 152 -69 247 -69 70 1 95 5 140 26
148 69 232 206 232 379 0 179 -93 329 -258 417 -122 65 -191 85 -294 86 -121
2 -218 -25 -356 -97 l-101 -52 28 55 c97 194 70 439 -64 587 -83 92 -232 150
-362 142 -43 -3 -50 -6 -56 -28 -4 -14 -7 -18 -8 -10 -2 28 -71 163 -115 225
-169 236 -436 365 -781 378 -60 3 -132 3 -160 1z m385 -59 c167 -37 308 -109
422 -214 157 -145 258 -367 273 -601 l6 -85 -28 75 c-75 199 -236 339 -429
372 -60 10 -84 9 -150 -4 -99 -19 -211 -72 -292 -138 l-63 -51 -50 45 c-99 89
-193 137 -310 158 -191 33 -432 -96 -530 -285 -46 -89 -50 -77 -5 17 52 108
46 127 -19 55 -39 -44 -69 -105 -89 -184 -8 -28 -21 -54 -32 -60 -53 -29 -76
-50 -94 -85 -24 -48 -25 -91 -4 -137 20 -40 47 -60 106 -77 l42 -13 22 -94
c13 -52 34 -121 48 -153 14 -32 26 -61 26 -64 0 -3 -36 -2 -80 2 -245 20 -398
148 -445 373 -19 87 -19 136 0 231 32 156 115 276 232 334 60 29 75 32 155 32
l89 -1 39 77 c48 91 148 219 220 279 118 99 298 183 452 210 82 15 400 6 488
-14z m-549 -495 c79 -24 148 -67 216 -132 l52 -51 -19 -36 c-10 -20 -49 -66
-87 -104 l-69 -68 -17 35 c-28 61 -102 90 -192 76 -124 -19 -165 -184 -72
-286 102 -111 249 -29 400 222 30 48 58 89 64 91 5 2 30 -31 56 -74 62 -107
131 -189 200 -237 51 -36 64 -40 116 -41 45 0 66 5 88 21 71 52 98 141 68 220
-21 56 -63 84 -124 84 -94 0 -163 -38 -185 -104 l-14 -39 -45 47 c-43 43 -117
172 -117 201 0 16 107 98 164 127 211 108 416 78 576 -82 106 -107 160 -231
160 -372 0 -200 -125 -326 -352 -353 -54 -6 -71 -16 -49 -29 5 -3 46 1 92 9
110 19 195 62 255 128 62 68 60 60 -33 -172 -4 -8 0 -12 12 -10 11 3 40 45 74
108 l56 105 53 11 c87 20 127 73 120 160 -5 62 -29 98 -84 125 l-40 20 -33
176 c-17 97 -29 179 -26 182 14 14 176 -16 236 -45 274 -128 323 -534 93 -768
-87 -88 -210 -135 -353 -135 l-69 0 -40 -79 c-126 -250 -353 -422 -648 -492
-74 -17 -111 -20 -224 -16 -149 4 -209 18 -280 66 -115 76 -111 200 12 335
l43 48 48 -55 c60 -71 77 -76 129 -42 55 37 103 37 156 2 57 -37 77 -34 129
17 l44 44 10 -26 c53 -146 102 -212 156 -212 70 0 116 101 116 250 -2 242
-127 427 -331 490 -92 29 -291 32 -377 6 -183 -54 -313 -192 -355 -376 -21
-90 -15 -226 13 -306 13 -38 27 -77 32 -88 8 -17 7 -17 -26 -1 -19 9 -67 42
-107 72 -79 60 -147 153 -229 313 -42 82 -93 223 -93 258 0 9 -5 33 -10 53 -9
33 -15 38 -57 48 -29 8 -59 25 -81 47 -32 32 -34 38 -29 81 4 39 12 54 46 85
62 59 77 53 84 -34 12 -138 92 -251 228 -323 65 -34 193 -70 211 -59 18 11 5
23 -44 39 -134 43 -252 134 -299 230 -35 73 -39 204 -9 288 56 154 180 275
335 329 70 24 195 23 276 -2z m-2 -321 c33 -11 61 -52 61 -88 0 -37 22 -34 68
10 44 43 45 43 22 9 -115 -172 -237 -235 -310 -162 -59 59 -64 160 -10 214 24
24 36 28 83 28 30 0 68 -5 86 -11z m751 -16 c82 -74 16 -243 -94 -243 -45 0
-109 38 -168 98 -47 49 -51 63 -6 24 15 -12 18 -12 22 -1 2 8 9 30 16 50 19
65 70 96 157 98 33 1 50 -5 73 -26z m-1403 -25 c-3 -8 -6 -5 -6 6 -1 11 2 17
5 13 3 -3 4 -12 1 -19z m1947 -40 c4 -19 16 -30 41 -38 86 -28 116 -138 55
-199 -19 -18 -46 -33 -68 -36 -20 -3 -45 -8 -55 -10 -15 -3 -17 1 -13 23 16
78 26 165 27 232 1 75 2 78 13 28z m-1957 -35 c-3 -10 -5 -2 -5 17 0 19 2 27
5 18 2 -10 2 -26 0 -35z m0 -80 c-3 -10 -5 -2 -5 17 0 19 2 27 5 18 2 -10 2
-26 0 -35z m878 -194 c-9 -24 -33 -78 -55 -121 -61 -117 -53 -178 24 -178 41
0 59 26 49 74 -4 22 -8 68 -8 101 0 55 4 66 39 114 l39 53 19 -23 c30 -40 48
-117 48 -210 0 -48 3 -94 6 -103 10 -25 50 -19 74 12 31 39 22 100 -35 219
-25 53 -45 97 -45 99 0 9 61 3 111 -12 145 -43 251 -159 295 -321 32 -123 14
-303 -37 -349 -45 -41 -105 23 -154 162 -13 38 -30 70 -38 72 -7 1 -32 -20
-56 -48 -23 -27 -49 -50 -57 -50 -8 0 -32 11 -53 25 -61 41 -96 42 -165 6
l-59 -31 -55 60 c-30 33 -61 60 -68 60 -19 0 -112 -107 -138 -159 -33 -65 -40
-119 -22 -170 14 -42 14 -42 -6 -24 -28 25 -65 102 -78 159 -16 69 -13 209 5
278 36 135 124 243 247 301 58 28 172 58 186 50 1 -1 -5 -22 -13 -46z m222
-211 c5 -36 -8 -68 -28 -68 -5 0 -9 39 -8 88 1 87 1 87 16 52 8 -19 18 -52 20
-72z m-232 -46 c-3 -7 -15 -12 -27 -10 -31 4 -35 38 -12 97 l18 46 13 -60 c6
-33 10 -66 8 -73z m1287 -29 c-130 -184 -148 -454 -50 -731 17 -48 44 -114 60
-147 l30 -60 -38 37 c-52 49 -112 78 -179 87 -30 4 -56 10 -58 12 -2 2 -16 38
-32 79 -42 112 -99 220 -140 268 -39 45 -90 78 -99 63 -3 -5 14 -42 39 -82 54
-90 118 -247 140 -349 25 -115 30 -316 11 -432 -39 -240 -143 -455 -288 -595
-50 -48 -123 -103 -137 -103 -4 0 -20 22 -36 50 -32 55 -48 66 -65 45 -9 -11
-6 -35 10 -102 60 -237 3 -494 -123 -559 -67 -35 -163 14 -206 106 -23 50 -26
71 -32 235 -10 247 -4 276 115 529 111 237 132 287 180 425 53 153 93 361 68
361 -4 0 -25 -18 -46 -39 -98 -101 -330 -148 -503 -102 -84 22 -128 47 -177
101 -66 73 -69 57 -26 -120 53 -216 91 -324 210 -585 122 -269 138 -335 136
-590 -1 -167 -3 -184 -25 -233 -13 -29 -37 -64 -54 -78 -84 -71 -234 33 -285
195 -27 90 -24 303 7 403 20 64 22 80 11 93 -12 14 -15 14 -33 -2 -10 -10 -32
-44 -48 -76 l-30 -58 -46 33 c-58 42 -190 181 -247 261 -131 183 -198 368
-214 587 l-7 95 -77 -1 c-126 -2 -221 -65 -277 -183 -23 -50 -26 -68 -25 -161
0 -118 15 -169 82 -278 57 -95 110 -158 192 -229 110 -94 201 -153 277 -179
86 -30 46 -32 -63 -4 -217 56 -464 293 -543 522 -107 312 34 565 354 633 44 9
89 19 101 21 16 3 27 24 54 104 40 123 137 321 183 374 l34 40 64 -53 c70 -57
227 -141 264 -141 12 0 28 -6 34 -14 22 -27 130 -66 225 -82 111 -19 230 -11
367 25 272 72 508 259 627 497 l31 61 93 6 c63 3 114 13 158 29 36 13 67 23
69 22 2 -2 -6 -15 -17 -31z m-867 -1001 c-30 -155 -111 -371 -240 -637 -43
-88 -86 -187 -95 -220 -10 -33 -20 -53 -23 -45 -3 8 -15 46 -28 85 -12 38 -51
132 -86 210 -114 249 -171 406 -217 602 l-14 63 45 -31 c158 -109 455 -104
625 11 23 16 44 30 44 30 1 0 -4 -31 -11 -68z"/>
</g>
</svg>
