<?xml version="1.0" standalone="no"?>
<!DOCTYPE svg PUBLIC "-//W3C//DTD SVG 20010904//EN"
 "http://www.w3.org/TR/2001/REC-SVG-20010904/DTD/svg10.dtd">
<svg version="1.0" xmlns="http://www.w3.org/2000/svg"
 width="512.000000pt" height="512.000000pt" viewBox="0 0 512.000000 512.000000"
 preserveAspectRatio="xMidYMid meet">

<g transform="translate(0.000000,512.000000) scale(0.100000,-0.100000)"
fill="#000000" stroke="none">
<path d="M3693 5060 c-246 -44 -726 -279 -1007 -493 -111 -85 -837 -812 -970
-972 -317 -382 -562 -865 -691 -1363 -14 -52 -50 -208 -81 -346 -68 -309 -82
-350 -203 -595 -171 -347 -201 -500 -113 -584 32 -31 115 -51 171 -41 72 11
167 47 236 86 126 74 463 313 639 455 l78 63 42 -31 c22 -17 133 -92 246 -167
232 -153 331 -231 389 -306 55 -71 75 -121 111 -272 43 -183 75 -259 104 -248
11 4 14 24 14 77 -2 88 18 132 67 153 52 21 86 17 161 -21 103 -52 205 -146
422 -389 37 -41 45 -46 58 -35 13 11 15 26 11 74 -7 84 -39 162 -113 273 -35
52 -62 97 -60 99 8 8 81 -35 110 -63 16 -16 41 -56 56 -89 24 -51 38 -93 76
-227 10 -33 42 -21 53 20 35 131 44 270 22 349 -26 97 -119 187 -240 235 -51
20 -71 22 -213 19 -147 -2 -162 0 -218 22 -154 63 -309 188 -330 266 -26 100
32 248 168 431 152 203 317 376 672 703 265 244 276 256 302 341 18 60 20 83
14 185 -20 352 -19 345 -1 402 25 74 111 158 240 233 318 186 423 261 520 368
116 128 137 280 71 521 -32 118 -63 194 -137 337 -80 154 -174 285 -289 401
-75 76 -105 100 -145 113 -61 21 -172 28 -242 16z m217 -61 c54 -16 126 -74
187 -149 67 -83 218 -334 282 -470 78 -165 104 -262 105 -400 1 -111 0 -118
-32 -182 -53 -109 -174 -216 -381 -339 -319 -189 -384 -238 -427 -326 -32 -64
-33 -98 -24 -458 4 -149 -4 -190 -51 -256 -11 -16 -150 -150 -307 -298 -370
-346 -508 -496 -650 -708 -236 -351 -200 -511 153 -684 131 -64 196 -77 322
-67 136 12 215 -10 297 -83 70 -61 109 -196 92 -314 l-8 -47 -27 79 c-32 93
-65 144 -118 183 -37 27 -174 80 -208 80 -34 0 -25 -31 33 -107 103 -135 180
-274 170 -305 -2 -5 -43 35 -91 89 -126 141 -227 223 -354 287 -104 52 -192
24 -246 -79 -9 -16 -16 -27 -17 -24 0 4 -9 53 -21 110 -46 230 -122 317 -505
572 -261 174 -284 191 -284 200 0 3 64 59 143 124 332 278 796 723 1030 987
220 248 306 452 294 701 -5 126 -19 173 -102 355 -70 151 -85 211 -85 328 0
128 31 245 101 385 87 173 236 337 376 417 94 53 174 73 283 68 88 -3 104 -7
174 -41 164 -81 298 -253 347 -445 77 -303 -78 -501 -600 -766 -103 -52 -200
-100 -214 -105 l-26 -10 20 47 c34 77 28 163 -19 312 -47 148 -57 221 -42 313
17 106 47 175 100 228 80 80 178 89 249 24 29 -27 36 -40 35 -72 0 -52 -27
-89 -81 -109 -55 -21 -90 -12 -118 34 -22 35 -48 38 -53 5 -8 -54 46 -93 131
-95 151 -4 227 133 141 254 -39 56 -94 83 -164 82 -68 -1 -109 -22 -169 -83
-121 -124 -158 -341 -97 -556 15 -49 34 -124 42 -166 15 -69 15 -80 0 -131 -8
-30 -31 -75 -51 -99 -39 -49 -45 -79 -17 -79 43 0 319 132 502 240 215 127
381 272 442 386 84 156 74 326 -29 527 -38 74 -65 110 -138 183 -202 203 -404
237 -655 111 -145 -72 -303 -244 -398 -432 -81 -162 -128 -357 -119 -495 7
-101 12 -116 89 -283 73 -157 98 -252 98 -367 0 -284 -139 -498 -660 -1021
-262 -263 -362 -355 -656 -601 l-151 -127 -39 31 c-128 102 -207 199 -234 287
-13 42 -22 56 -36 56 -16 0 -19 -7 -17 -37 5 -81 94 -204 242 -332 24 -21 39
-41 34 -45 -5 -3 -86 -65 -179 -137 -285 -221 -439 -322 -597 -391 -136 -60
-253 -56 -289 10 -18 33 -14 144 7 207 21 65 58 140 132 272 108 192 152 323
239 712 65 293 107 441 176 626 147 395 374 768 652 1074 45 49 158 161 251
248 94 88 205 199 249 246 293 323 489 477 817 645 319 162 608 238 749 196z"/>
</g>
</svg>
