<?xml version="1.0" standalone="no"?>
<!DOCTYPE svg PUBLIC "-//W3C//DTD SVG 20010904//EN"
 "http://www.w3.org/TR/2001/REC-SVG-20010904/DTD/svg10.dtd">
<svg version="1.0" xmlns="http://www.w3.org/2000/svg"
 width="512.000000pt" height="512.000000pt" viewBox="0 0 512.000000 512.000000"
 preserveAspectRatio="xMidYMid meet">

<g transform="translate(0.000000,512.000000) scale(0.100000,-0.100000)"
fill="#000000" stroke="none">
<path d="M2379 4970 c-380 -32 -749 -200 -974 -442 -306 -331 -401 -804 -253
-1268 82 -257 202 -382 411 -427 265 -56 612 100 673 303 22 75 17 135 -21
250 -42 127 -52 199 -35 279 33 165 162 292 340 336 70 17 229 17 300 0 76
-18 167 -63 217 -105 126 -109 169 -308 105 -491 -72 -208 -241 -383 -611
-635 -326 -222 -447 -329 -557 -493 -208 -310 -254 -665 -103 -802 60 -54 123
-80 356 -149 440 -130 581 -198 708 -338 103 -114 140 -267 100 -414 -68 -253
-371 -415 -652 -349 -371 87 -524 489 -289 754 49 55 58 93 23 99 -41 8 -140
-123 -178 -235 -65 -188 5 -423 163 -552 74 -60 120 -85 213 -117 112 -38 274
-40 385 -6 158 50 276 141 352 272 69 117 87 290 43 415 -58 167 -235 321
-480 418 -87 35 -138 51 -439 138 -165 48 -220 74 -268 127 -46 51 -63 119
-55 227 14 194 97 384 246 565 87 106 169 176 337 291 355 242 483 344 596
474 134 154 197 292 206 451 8 162 -35 280 -142 382 -89 86 -183 129 -322 150
-99 15 -114 15 -206 -1 -170 -29 -291 -97 -374 -210 -60 -80 -86 -168 -87
-282 0 -78 5 -105 37 -198 45 -133 47 -191 10 -266 -80 -160 -387 -271 -597
-216 -202 52 -308 197 -378 516 -19 85 -24 133 -23 264 0 227 33 367 129 554
241 466 803 721 1460 661 330 -30 652 -165 864 -364 348 -327 460 -885 261
-1302 -59 -124 -150 -235 -401 -497 -241 -250 -293 -315 -357 -442 -71 -142
-102 -280 -102 -454 0 -102 -20 -178 -55 -211 -21 -19 -50 -28 -164 -46 -151
-24 -240 -56 -285 -103 -29 -31 -27 -61 5 -61 11 0 36 11 57 25 55 36 115 54
232 71 131 17 181 36 219 79 42 48 51 88 61 270 11 189 26 258 84 380 63 132
145 235 371 465 110 113 226 237 257 275 114 143 196 320 228 495 17 90 15
327 -4 431 -113 630 -650 1039 -1396 1063 -74 3 -183 1 -241 -4z"/>
<path d="M2123 4705 c-35 -15 -42 -32 -18 -41 24 -10 70 11 70 31 0 24 -13 27
-52 10z"/>
<path d="M1937 4636 c-112 -46 -269 -168 -253 -195 12 -19 31 -12 62 20 24 26
156 119 168 119 2 0 29 11 59 26 39 17 54 29 50 40 -7 19 -18 18 -86 -10z"/>
<path d="M2852 718 c-7 -7 -12 -26 -12 -42 -1 -72 -74 -175 -154 -214 -25 -13
-76 -29 -113 -36 -47 -8 -68 -17 -68 -27 0 -11 14 -14 60 -14 48 0 74 7 127
33 109 54 170 136 192 259 6 36 -13 60 -32 41z"/>
</g>
</svg>
