<?xml version="1.0" standalone="no"?>
<!DOCTYPE svg PUBLIC "-//W3C//DTD SVG 20010904//EN"
 "http://www.w3.org/TR/2001/REC-SVG-20010904/DTD/svg10.dtd">
<svg version="1.0" xmlns="http://www.w3.org/2000/svg"
 width="512.000000pt" height="512.000000pt" viewBox="0 0 512.000000 512.000000"
 preserveAspectRatio="xMidYMid meet">

<g transform="translate(0.000000,512.000000) scale(0.100000,-0.100000)"
fill="#000000" stroke="none">
<path d="M2930 4613 c-196 -34 -387 -143 -492 -282 -60 -79 -131 -222 -152
-307 -9 -34 -16 -103 -16 -154 0 -200 101 -374 282 -483 67 -40 171 -77 220
-77 l30 0 -31 -29 c-17 -16 -31 -33 -31 -38 0 -6 -24 -2 -52 8 -99 34 -172 19
-235 -48 -33 -34 -36 -35 -45 -17 -6 10 -34 42 -62 69 -94 93 -189 99 -318 21
l-56 -33 -11 24 c-36 78 -256 84 -381 10 -51 -30 -99 -77 -120 -118 -17 -32
-25 -38 -67 -44 -69 -10 -138 -48 -155 -85 -9 -21 -17 -28 -28 -23 -72 32
-186 -2 -315 -95 -87 -62 -135 -119 -183 -217 -53 -105 -55 -179 -7 -227 23
-23 24 -27 9 -39 -51 -42 -59 -169 -18 -276 46 -122 46 -126 30 -223 -9 -50
-16 -92 -16 -94 0 -2 13 -9 29 -14 21 -7 47 -7 90 2 68 14 121 50 160 109 13
20 32 37 42 37 19 0 71 55 95 102 21 40 30 137 16 175 l-10 30 47 -23 c25 -13
54 -25 64 -28 14 -5 9 -13 -27 -50 -29 -28 -49 -59 -56 -87 -11 -41 -10 -53
15 -134 4 -16 -3 -25 -34 -42 -94 -53 -107 -212 -26 -318 l26 -35 -33 -20
c-18 -11 -42 -20 -53 -20 -33 0 -85 -38 -100 -73 -7 -18 -27 -158 -44 -312
-18 -154 -43 -355 -58 -447 -15 -92 -25 -169 -22 -171 10 -9 415 -16 429 -7
12 8 12 18 -3 77 -28 113 -29 154 -12 278 9 66 20 169 25 229 l9 110 50 50
c40 41 61 54 103 64 92 21 158 61 238 142 117 119 193 274 221 449 20 134 -11
251 -78 292 -46 29 -113 28 -220 -1 -45 -12 -87 -20 -93 -18 -19 6 65 125 94
132 69 17 194 -31 267 -104 64 -64 83 -124 77 -244 -8 -140 -32 -199 -173
-426 -19 -30 -37 -74 -41 -97 -3 -24 -17 -58 -30 -76 -80 -111 -75 -142 68
-401 92 -166 119 -234 127 -320 6 -68 7 -71 47 -102 42 -31 42 -31 201 -38
162 -8 213 -3 213 18 0 14 -104 213 -231 442 -49 89 -89 164 -89 167 0 3 18
31 39 62 30 43 53 63 100 86 68 34 134 102 152 156 11 36 8 121 -6 158 -7 17
-4 16 21 -6 61 -55 82 -63 168 -63 78 0 100 7 189 52 4 2 7 -23 7 -55 1 -32 7
-74 14 -94 9 -25 10 -43 3 -54 -5 -9 -15 -166 -23 -349 -7 -182 -18 -369 -24
-415 -6 -46 -7 -88 -3 -92 10 -10 398 -17 408 -8 3 4 0 27 -7 50 -9 30 -13
103 -12 229 1 201 20 352 54 424 18 39 77 112 85 104 13 -13 48 -369 50 -510
2 -161 3 -168 31 -226 l28 -59 126 -7 c157 -8 244 -8 264 0 33 13 18 60 -50
154 -37 51 -71 109 -76 129 -5 20 -12 124 -15 231 l-5 195 47 50 c70 74 109
163 108 246 -1 64 -1 66 23 61 40 -7 125 41 157 90 41 64 51 111 51 239 l0
117 23 -15 c35 -23 101 -19 129 8 35 33 47 82 41 168 -3 42 -8 83 -12 93 -5
12 1 18 24 23 48 10 78 41 101 103 60 159 18 475 -86 648 -44 74 -67 99 -124
137 l-45 29 43 -6 c24 -4 71 -20 104 -37 150 -76 259 -29 309 132 22 70 23 98
8 148 -22 70 -41 97 -149 215 -60 65 -115 134 -122 152 -7 19 -17 34 -22 34
-22 0 -103 -64 -144 -114 -106 -128 -134 -143 -139 -74 -3 34 -1 37 33 48 48
16 206 123 238 161 32 37 33 74 7 184 -25 104 -72 224 -111 285 -40 63 -131
147 -196 182 -111 60 -255 75 -367 37 -34 -11 -68 -25 -74 -31 -9 -7 -34 -1
-85 20 -123 51 -282 73 -388 55z m260 -47 c192 -50 363 -166 541 -367 53 -59
58 -70 42 -75 -152 -53 -239 -116 -263 -188 l-11 -34 -48 16 c-36 13 -59 30
-88 67 -126 159 -265 222 -433 196 -87 -14 -138 -39 -192 -94 -121 -124 -130
-316 -21 -437 61 -68 127 -100 207 -100 109 0 186 58 228 173 11 31 23 57 26
57 8 0 -9 -134 -25 -190 -42 -152 -146 -239 -294 -248 -98 -6 -165 9 -266 59
-137 68 -249 207 -282 349 -29 126 -3 291 67 424 119 228 299 361 550 406 61
11 192 4 262 -14z m617 -51 c94 -46 183 -132 229 -220 41 -77 92 -238 100
-312 l6 -58 -25 50 c-43 88 -124 141 -233 152 -53 6 -54 6 -131 96 -75 88
-211 210 -286 256 -20 12 -37 26 -37 30 0 7 39 26 90 45 8 3 59 4 112 2 90 -3
104 -6 175 -41z m-678 -380 c23 -8 61 -28 85 -44 43 -30 146 -137 146 -153 0
-4 -15 -14 -34 -22 -19 -8 -55 -33 -79 -55 l-44 -41 -7 69 c-7 80 -14 103 -30
98 -7 -2 -13 -45 -17 -109 -7 -117 -32 -189 -85 -242 -141 -140 -394 -2 -394
215 0 148 116 280 265 303 47 7 150 -3 194 -19z m857 -71 c61 -29 85 -55 110
-120 l17 -45 -26 -27 c-69 -72 -245 -152 -334 -152 -42 0 -50 -16 -26 -48 26
-35 50 -39 78 -12 28 26 44 20 38 -15 -4 -20 0 -27 23 -35 46 -18 68 -5 143
84 77 91 132 138 139 118 7 -23 85 -116 167 -203 86 -90 107 -125 84 -141 -8
-5 -53 -7 -101 -4 -75 5 -88 3 -88 -10 0 -27 67 -46 147 -42 84 4 85 2 59 -86
-33 -108 -105 -165 -190 -150 -22 3 -67 20 -99 37 -72 38 -133 40 -224 9 -74
-26 -112 -27 -180 -7 -60 18 -96 45 -127 94 -49 77 -63 188 -32 246 19 35 20
61 5 104 -14 40 -35 51 -97 51 -88 0 -232 58 -232 93 0 21 90 86 128 93 24 5
52 1 83 -9 63 -23 66 -22 79 19 25 74 95 131 215 175 67 25 167 18 241 -17z
m-639 -363 c34 -12 70 -21 80 -21 14 0 13 -3 -6 -16 -12 -9 -31 -36 -42 -61
l-19 -44 -70 7 c-55 5 -75 3 -94 -9 l-24 -16 13 49 c7 27 16 80 20 119 l7 70
36 -29 c21 -16 65 -38 99 -49z m435 -23 c-9 -9 -15 -9 -24 0 -9 9 -7 12 12 12
19 0 21 -3 12 -12z m-238 -34 c9 -24 7 -59 -5 -71 -36 -36 -28 -167 16 -253
50 -98 161 -160 264 -146 150 20 147 20 194 -8 113 -66 207 -281 223 -511 13
-183 -32 -315 -107 -315 -25 0 -33 6 -46 38 -8 20 -26 61 -40 91 -93 198 -353
478 -353 381 0 -24 93 -195 169 -309 55 -83 139 -177 194 -216 62 -45 63 -265
2 -289 -30 -11 -67 -6 -100 14 -28 17 -33 29 -49 100 -35 163 -129 409 -186
491 -15 20 -29 29 -44 27 -31 -4 -32 -51 -1 -165 49 -178 120 -329 200 -425
18 -21 24 -45 30 -115 14 -179 -34 -307 -129 -343 -38 -14 -89 2 -103 33 -18
39 -64 87 -84 87 -35 0 -23 -26 62 -132 17 -21 22 -40 22 -90 0 -84 -25 -139
-97 -217 l-56 -61 0 -153 c0 -161 14 -306 32 -341 6 -12 28 -41 48 -66 44 -53
80 -110 80 -127 0 -15 -71 -17 -246 -7 -107 7 -111 8 -122 33 -7 14 -19 37
-27 51 -11 19 -13 43 -9 100 7 88 -9 308 -36 502 l-19 136 20 59 c23 65 21
130 -6 183 -17 33 -74 74 -118 84 -46 11 -45 -18 6 -113 26 -50 50 -111 56
-145 l11 -59 -43 -55 c-23 -30 -48 -62 -54 -71 -57 -76 -91 -502 -57 -690 l7
-34 -173 7 c-96 3 -175 7 -176 9 -1 1 2 31 7 67 5 36 15 217 23 403 12 281 17
341 30 356 14 16 14 21 -4 56 -15 29 -20 59 -20 112 0 63 4 81 30 127 71 125
79 332 18 493 -31 83 -70 117 -107 94 -11 -7 -9 -21 12 -77 48 -125 57 -233
36 -426 -13 -115 -25 -137 -94 -169 -28 -13 -64 -19 -121 -19 -73 0 -85 3
-121 29 -74 53 -148 157 -166 232 -4 14 2 56 13 95 24 82 25 127 5 144 -43 36
-66 -46 -62 -215 l3 -111 44 -54 c82 -104 98 -176 59 -258 -24 -49 -126 -132
-163 -132 -15 0 -34 -20 -68 -70 -27 -39 -48 -78 -48 -86 0 -9 36 -79 79 -157
94 -170 231 -425 231 -432 0 -3 -72 -5 -160 -5 l-159 0 -36 31 c-28 25 -35 38
-35 68 0 88 -33 171 -146 367 -66 114 -104 205 -104 247 0 13 11 39 25 58 34
47 53 88 60 131 3 20 28 71 56 114 114 175 159 300 159 445 0 76 -4 93 -31
147 -50 102 -146 172 -266 194 -81 15 -120 -3 -168 -75 -20 -30 -37 -67 -38
-83 -2 -24 2 -29 24 -32 14 -2 59 6 100 17 40 12 100 21 132 21 53 0 62 -3 92
-33 139 -139 -9 -581 -249 -746 -44 -31 -143 -71 -174 -71 -8 0 -41 -23 -73
-51 -64 -55 -79 -88 -79 -175 0 -28 -9 -120 -21 -205 -21 -159 -20 -220 5
-319 l14 -52 -183 4 c-101 1 -186 5 -188 8 -3 3 3 54 14 114 18 105 41 295 74
595 21 188 40 231 103 231 10 0 40 11 67 25 27 13 52 22 57 19 29 -18 78 27
78 71 0 22 -33 18 -65 -7 l-28 -22 -23 30 c-53 66 -69 174 -34 232 31 51 76
73 132 66 53 -7 78 5 78 38 0 19 -4 20 -54 14 l-54 -7 -17 44 c-29 76 8 149
109 211 15 10 24 21 20 26 -5 4 -39 17 -76 29 -74 25 -164 95 -174 136 -4 18
13 58 64 152 81 150 95 183 90 215 -8 58 -120 17 -175 -65 -45 -68 -59 -141
-40 -224 13 -58 13 -70 -1 -104 -19 -49 -12 -66 37 -79 22 -6 47 -20 56 -33
33 -48 8 -176 -47 -234 -33 -35 -45 -28 -50 28 -5 52 -35 104 -59 104 -25 0
-19 -114 8 -151 22 -30 22 -31 3 -62 -30 -49 -95 -85 -164 -90 -50 -4 -58 -2
-53 11 3 8 11 51 18 94 12 77 11 79 -21 158 -41 101 -52 211 -25 260 20 38 52
55 100 55 44 0 65 9 65 27 0 12 -12 14 -57 12 -75 -4 -98 5 -113 41 -39 94 73
290 224 393 113 77 235 110 266 72 20 -24 40 -18 55 18 7 18 22 41 33 50 23
21 102 47 144 47 23 0 31 7 49 45 26 55 76 100 149 134 47 22 69 25 152 26 83
0 100 -3 125 -21 15 -12 29 -31 31 -43 5 -33 27 -36 64 -8 103 77 211 94 285
45 23 -15 54 -45 69 -68 16 -23 37 -51 46 -63 l17 -22 46 52 c27 31 60 56 81
63 45 15 111 7 165 -21 46 -23 74 -19 64 10 -4 13 2 25 20 40 22 16 39 20 95
18 l68 -2 5 -62 c8 -108 68 -193 135 -193 12 0 22 -3 22 -6 0 -3 -10 -20 -22
-37 -36 -50 -32 -132 7 -188 42 -60 112 -101 180 -107 l54 -4 6 -41 c12 -67
67 -106 107 -74 22 17 33 57 63 227 26 144 35 170 61 170 8 0 17 12 20 26 12
49 -46 71 -61 23 -8 -26 -31 -24 -94 8 -58 28 -84 68 -97 151 -5 33 -3 43 10
48 20 8 21 38 0 55 -13 10 -20 10 -36 0 -17 -10 -24 -9 -52 12 -82 63 -116
162 -76 225 l21 34 84 -7 85 -7 15 38 c9 22 19 46 24 54 20 37 113 55 125 24z
m-386 -276 c15 -36 76 -103 118 -129 25 -15 34 -28 34 -48 0 -15 7 -52 16 -82
20 -65 65 -111 134 -136 28 -10 50 -22 50 -28 0 -11 -43 -254 -56 -312 -18
-89 -84 -48 -84 53 0 36 -15 53 -33 35 -33 -33 -130 2 -190 68 -77 86 -53 181
67 255 40 25 20 41 -27 21 -62 -26 -105 -20 -142 19 -46 49 -73 169 -42 194 6
5 26 13 44 16 55 12 71 61 23 73 -18 5 -15 10 23 53 l42 47 6 -36 c3 -20 11
-48 17 -63z m-170 -40 c-3 -7 -22 -14 -44 -15 l-39 -2 35 14 c45 17 53 18 48
3z m947 -738 c64 -95 122 -207 112 -216 -10 -10 -110 102 -161 181 -57 86
-156 260 -156 273 2 18 148 -152 205 -238z m-2735 160 c0 -28 -137 -290 -151
-290 -12 0 -18 86 -8 129 14 61 32 92 78 134 39 35 81 49 81 27z m2536 -202
c19 -38 49 -107 65 -151 33 -88 81 -258 75 -264 -7 -8 -76 112 -105 182 -31
74 -74 214 -87 280 -10 55 9 38 52 -47z m-2656 -218 l21 -29 -31 13 c-17 7
-31 16 -31 19 1 4 1 14 1 23 0 20 14 11 40 -26z m1682 -224 c18 -58 23 -94 22
-191 0 -79 -6 -133 -15 -158 -13 -35 -14 -25 -14 135 -1 178 0 172 -50 313 -6
17 -4 17 14 -4 12 -13 31 -55 43 -95z m-1783 -61 l0 -20 -9 20 c-5 11 -9 29
-9 40 l0 20 9 -20 c5 -11 9 -29 9 -40z m1236 -72 c-9 -50 -17 -34 -9 18 4 24
9 38 12 31 2 -7 1 -29 -3 -49z m944 -327 c53 -28 78 -93 66 -168 l-7 -42 -22
60 c-13 34 -35 82 -49 107 -37 63 -36 67 12 43z"/>
</g>
</svg>
