<?xml version="1.0" standalone="no"?>
<!DOCTYPE svg PUBLIC "-//W3C//DTD SVG 20010904//EN"
 "http://www.w3.org/TR/2001/REC-SVG-20010904/DTD/svg10.dtd">
<svg version="1.0" xmlns="http://www.w3.org/2000/svg"
 width="512.000000pt" height="512.000000pt" viewBox="0 0 512.000000 512.000000"
 preserveAspectRatio="xMidYMid meet">

<g transform="translate(0.000000,512.000000) scale(0.100000,-0.100000)"
fill="#000000" stroke="none">
<path d="M2310 4324 c-158 -30 -399 -178 -502 -308 -48 -60 -88 -140 -88 -177
0 -45 18 -50 95 -24 98 33 345 61 305 35 -51 -33 -283 -90 -366 -90 -86 0
-101 8 -114 57 -16 66 -45 118 -80 144 -18 13 -68 60 -113 105 -106 105 -162
124 -339 116 -73 -3 -82 -18 -75 -127 15 -243 163 -440 348 -462 49 -6 50 -7
43 -32 -19 -71 -22 -124 -12 -224 13 -121 8 -145 -43 -230 -16 -26 -29 -58
-29 -72 0 -42 39 -130 73 -165 55 -57 97 -70 229 -70 128 0 138 -5 138 -64 0
-40 -25 -56 -88 -56 -168 0 -368 200 -427 424 -19 74 -28 85 -55 61 -40 -36
-64 -121 -64 -235 -1 -190 41 -270 213 -399 72 -54 119 -97 125 -113 22 -64
-57 -141 -158 -153 -141 -18 -318 99 -468 310 -66 93 -62 101 15 28 119 -113
340 -234 429 -235 52 -1 73 20 64 64 -9 50 -53 97 -182 193 -201 151 -344 315
-437 501 -39 78 -103 261 -113 323 -4 23 -13 46 -20 52 -29 24 -88 -166 -106
-343 -26 -254 31 -522 154 -731 52 -87 191 -229 271 -276 132 -77 349 -122
464 -95 102 23 213 106 253 188 37 78 21 176 -43 252 -15 18 -27 33 -27 35 0
2 33 4 73 5 95 1 168 34 306 137 125 95 168 118 227 125 54 6 57 -2 7 -18
-138 -44 -186 -142 -125 -260 26 -52 52 -76 52 -48 0 7 9 24 20 38 26 34 25
54 -5 74 -14 9 -25 24 -25 34 0 29 29 62 55 62 20 0 26 -7 35 -40 17 -64 59
-51 114 34 38 59 80 95 140 120 21 9 39 16 41 16 1 0 5 -39 8 -87 4 -49 14
-128 23 -178 36 -199 17 -325 -67 -455 -60 -94 -165 -192 -251 -235 l-72 -36
-13 53 c-28 110 -106 177 -217 185 -88 7 -123 -7 -212 -88 -46 -42 -105 -83
-151 -106 -65 -32 -86 -37 -161 -41 -122 -6 -185 19 -270 105 -35 34 -68 63
-73 63 -4 0 -15 -23 -23 -51 -85 -286 73 -469 405 -469 84 0 237 24 319 49
198 62 254 246 84 277 -21 3 -43 9 -47 11 -14 8 17 36 68 59 66 31 116 31 152
0 54 -47 24 -143 -83 -264 -33 -36 -54 -69 -52 -79 9 -47 143 -8 205 60 22 24
45 52 51 62 9 18 13 18 38 5 56 -30 160 -188 198 -304 22 -63 22 -164 2 -204
-8 -16 -46 -52 -83 -79 -115 -84 -160 -140 -177 -220 -7 -29 -5 -33 17 -38 42
-11 70 -1 93 32 l21 32 -1 -37 -1 -37 290 -2 c266 -2 292 -1 321 16 28 17 31
17 30 2 -1 -14 25 -16 274 -16 l275 0 3 23 c4 26 17 29 30 5 8 -14 42 -18 258
-25 286 -11 452 0 494 30 89 67 -43 186 -206 186 -60 0 -80 -4 -130 -30 l-58
-31 -64 34 c-48 25 -76 33 -116 33 -65 0 -133 -33 -163 -79 -13 -19 -23 -28
-23 -21 0 14 62 77 98 100 55 35 93 318 58 430 -10 30 -20 61 -22 68 -4 8 5
12 29 12 57 0 198 46 321 104 64 30 116 53 116 50 0 -2 -15 -25 -34 -51 -60
-85 -136 -226 -156 -292 -37 -118 -22 -188 52 -244 36 -28 256 -113 265 -103
4 3 1 23 -5 45 -32 104 -8 187 138 491 113 237 169 376 201 498 25 97 34 172
22 172 -6 0 -38 -31 -72 -70 -181 -204 -540 -418 -819 -490 -148 -37 -216 -23
-181 38 11 19 32 29 104 47 187 47 321 121 454 249 125 121 206 254 257 423
23 76 27 107 28 228 1 133 0 143 -26 196 -43 86 -128 143 -274 184 -79 22
-114 36 -114 45 0 14 135 22 192 11 154 -28 230 -107 281 -289 19 -71 21 -100
19 -349 -1 -248 0 -274 17 -294 22 -28 31 -22 80 49 105 155 146 284 145 452
-1 95 -6 129 -27 195 -116 352 -485 611 -1007 704 -173 32 -192 44 -471 311
-186 177 -237 217 -265 206 -41 -16 10 -98 297 -481 368 -491 530 -719 529
-748 -1 -17 -84 76 -131 144 -42 62 -66 89 -79 89 -20 0 -16 -34 16 -131 50
-151 101 -351 115 -448 17 -123 7 -295 -25 -403 -32 -110 -88 -229 -169 -365
-84 -141 -110 -193 -136 -277 -51 -165 -36 -269 64 -435 31 -51 59 -108 62
-127 l6 -34 -240 0 -240 0 5 29 c2 15 -3 42 -12 59 -25 48 -20 78 17 106 58
44 146 55 250 30 45 -11 33 21 -15 41 -105 43 -261 25 -312 -36 -30 -35 -32
-61 -10 -114 21 -52 15 -96 -16 -112 -15 -7 -63 -13 -117 -13 -82 0 -93 2 -93
18 -1 9 29 76 66 148 61 119 67 137 72 205 3 48 -1 103 -12 153 -29 143 -15
240 58 391 98 201 272 371 456 446 36 14 64 30 64 35 -1 5 -33 20 -70 33 -85
29 -257 40 -343 21 -78 -17 -188 -71 -244 -120 -26 -23 -47 -39 -47 -36 0 4
38 82 84 174 219 437 274 603 220 663 -30 33 -63 24 -117 -32 -27 -28 -46 -43
-43 -32 26 85 49 273 50 403 1 129 -1 150 -21 193 -26 56 -45 66 -83 43 -47
-27 -131 -20 -324 29 -261 66 -447 75 -603 30 -30 -9 -57 -14 -60 -12 -6 6 95
44 150 57 99 23 327 8 498 -33 67 -16 125 -5 228 46 179 87 253 260 206 488
-9 46 -21 90 -27 96 -24 29 -176 5 -267 -42 -64 -32 -126 -89 -157 -141 -27
-46 -38 -57 -27 -26 14 40 94 150 142 197 28 27 51 55 51 61 0 30 -130 61
-200 48z m144 -40 c11 -4 -1 -24 -53 -84 -122 -141 -172 -286 -155 -449 11
-107 30 -118 39 -24 21 225 89 359 217 424 l43 22 -37 -41 c-64 -70 -71 -98
-76 -281 -3 -133 -2 -163 9 -159 9 3 18 36 25 89 22 167 50 251 105 313 35 41
110 83 155 88 28 3 29 2 42 -67 18 -97 10 -206 -20 -275 -43 -96 -150 -177
-279 -211 -40 -11 -60 -9 -150 9 -195 41 -385 45 -511 12 -92 -25 -238 -120
-238 -156 0 -20 13 -18 68 10 26 13 81 35 122 48 67 21 93 23 250 22 l175 0
181 -47 c196 -51 302 -61 340 -32 27 20 30 19 47 -18 39 -80 30 -294 -20 -537
-14 -69 -26 -134 -27 -145 -2 -37 23 -20 66 44 111 166 169 109 97 -96 -17
-48 -89 -207 -161 -353 -148 -301 -180 -376 -172 -402 3 -10 31 -39 62 -64 93
-76 110 -121 77 -201 -14 -33 -17 -35 -49 -30 -19 3 -81 33 -138 67 -161 95
-213 102 -213 29 0 -33 4 -36 90 -80 202 -105 275 -222 275 -442 0 -109 -17
-207 -61 -345 l-30 -92 -149 0 -149 0 8 28 c23 78 94 125 234 156 16 4 27 12
24 19 -9 28 -127 35 -185 12 -54 -23 -80 -51 -123 -137 -29 -58 -44 -78 -59
-78 -58 0 13 109 130 200 104 81 122 110 123 194 0 138 -94 336 -204 430 -58
49 -79 47 -123 -13 -37 -53 -101 -97 -157 -108 l-34 -6 58 63 c155 172 145
330 -22 330 -70 0 -196 -80 -189 -119 2 -10 22 -20 53 -27 65 -14 94 -30 104
-57 16 -43 -30 -111 -99 -147 -83 -42 -290 -76 -415 -67 -261 19 -381 143
-345 356 13 76 23 93 39 62 16 -29 105 -91 162 -112 33 -13 77 -20 124 -20
126 -1 245 53 376 170 64 57 93 71 147 71 63 0 111 -20 156 -63 41 -40 53 -65
71 -149 7 -37 32 -36 104 2 178 95 320 275 358 454 16 76 13 124 -13 281 -9
49 -18 132 -22 185 -8 115 -13 118 -119 65 -61 -30 -80 -45 -103 -83 -59 -95
-80 -115 -80 -72 0 29 -36 60 -69 60 -20 0 -37 -9 -55 -31 -33 -39 -34 -83 -2
-112 21 -20 22 -25 10 -41 -13 -18 -15 -17 -29 17 -46 110 11 185 166 221 33
8 63 17 66 20 21 21 -87 52 -149 42 -57 -9 -119 -44 -228 -127 -158 -120 -255
-154 -374 -129 -32 6 -60 9 -63 6 -4 -3 17 -30 44 -59 65 -68 93 -124 93 -182
0 -89 -64 -166 -187 -227 -61 -30 -66 -30 -170 -26 -240 12 -435 122 -569 324
-130 195 -194 446 -180 700 6 105 45 297 64 316 5 5 17 -22 27 -59 22 -80 65
-193 99 -261 88 -173 260 -368 446 -506 107 -79 170 -144 170 -177 0 -16 -8
-19 -43 -19 -51 0 -185 64 -307 147 -69 46 -229 202 -266 259 -15 22 -44 33
-44 17 0 -15 82 -159 138 -243 65 -98 194 -233 267 -279 75 -47 174 -75 242
-67 111 13 193 83 193 165 0 40 -34 78 -134 150 -135 97 -179 157 -205 279
-20 93 -9 208 27 277 l15 30 23 -67 c38 -114 84 -188 164 -269 108 -110 229
-166 321 -149 52 10 79 39 79 87 0 43 -25 93 -48 94 -9 0 -63 0 -119 -1 -148
-2 -202 26 -249 125 -31 65 -30 89 5 144 47 73 56 123 44 237 -12 109 -4 191
22 231 25 38 14 50 -57 55 -159 13 -287 144 -333 342 -9 38 -15 94 -13 125 l3
56 110 0 c97 0 116 -3 160 -25 31 -16 66 -45 94 -80 24 -30 59 -63 77 -72 49
-26 86 -82 104 -157 15 -60 19 -67 46 -72 91 -20 246 0 399 52 104 35 141 59
132 83 -5 13 -21 16 -79 16 -85 0 -235 -23 -297 -45 -55 -19 -61 -19 -61 3 0
62 113 199 244 297 76 56 207 121 283 140 54 13 140 13 177 -1z m83 -182 c-9
-10 -30 -47 -47 -82 -27 -58 -32 -45 -8 20 12 32 58 93 66 86 3 -3 -2 -14 -11
-24z m553 -287 c165 -160 261 -240 333 -276 21 -11 88 -29 150 -40 552 -99
927 -382 1003 -758 26 -134 7 -273 -57 -411 -33 -71 -100 -180 -111 -180 -3 0
-6 125 -5 278 1 254 -1 283 -20 354 -63 223 -175 313 -388 313 -107 -1 -145
-13 -145 -45 0 -27 31 -44 123 -69 141 -38 226 -93 270 -176 32 -59 31 -263
-3 -385 -24 -91 -80 -213 -131 -287 -92 -133 -259 -268 -413 -332 -77 -32
-221 -69 -231 -59 -3 2 15 45 40 95 159 317 165 560 27 1006 -21 70 -38 127
-37 127 1 0 19 -24 39 -54 49 -71 132 -148 154 -144 60 13 -20 139 -468 738
-231 310 -322 436 -350 489 l-12 24 33 -24 c19 -13 108 -96 199 -184z m111
-1585 l47 -12 -66 -34 c-223 -117 -411 -351 -472 -589 -24 -92 -25 -167 -5
-250 20 -83 18 -165 -4 -233 -22 -64 -77 -164 -67 -122 45 191 47 378 7 482
-44 114 -138 209 -269 271 -60 28 -83 50 -68 64 10 10 82 -22 182 -82 99 -59
147 -78 176 -69 24 7 58 83 58 128 0 58 -28 104 -91 154 -32 24 -60 51 -63 59
-8 19 63 94 139 148 63 45 141 81 210 95 53 12 228 6 286 -10z m1274 -175
c-28 -120 -89 -275 -200 -505 -139 -291 -150 -321 -150 -431 l0 -85 -90 33
c-107 40 -130 54 -156 96 -16 26 -19 44 -16 93 7 97 69 215 252 479 24 35 -14
24 -133 -38 -154 -80 -290 -127 -389 -134 -40 -3 -73 -10 -73 -15 0 -5 9 -21
20 -36 38 -53 50 -181 29 -312 -18 -116 -28 -137 -81 -175 -27 -20 -56 -51
-65 -70 l-17 -36 -34 53 c-57 89 -90 162 -103 225 -11 52 -10 73 5 149 16 83
80 238 118 288 14 18 15 18 22 -7 24 -98 365 -5 686 186 119 71 220 147 309
232 42 40 77 72 78 71 1 -1 -4 -29 -12 -61z m-1553 -993 c-18 -10 -42 -31 -53
-48 -20 -28 -20 -28 -17 -4 3 26 59 70 87 70 9 -1 1 -9 -17 -18z m-547 -49
c-22 -9 -57 -29 -79 -46 l-38 -30 18 28 c19 29 85 65 119 64 12 0 4 -6 -20
-16z m1376 -63 l51 -33 64 33 c60 30 69 32 141 28 87 -5 152 -32 179 -73 41
-63 -7 -75 -317 -75 -135 0 -280 3 -322 6 -75 7 -77 8 -77 33 0 35 32 81 72
103 52 29 144 19 209 -22z"/>
</g>
</svg>
