<?xml version="1.0" standalone="no"?>
<!DOCTYPE svg PUBLIC "-//W3C//DTD SVG 20010904//EN"
 "http://www.w3.org/TR/2001/REC-SVG-20010904/DTD/svg10.dtd">
<svg version="1.0" xmlns="http://www.w3.org/2000/svg"
 width="512.000000pt" height="512.000000pt" viewBox="0 0 512.000000 512.000000"
 preserveAspectRatio="xMidYMid meet">

<g transform="translate(0.000000,512.000000) scale(0.100000,-0.100000)"
fill="#000000" stroke="none">
<path d="M2426 3563 c-109 -66 -222 -199 -288 -339 -16 -35 -34 -64 -38 -64
-38 0 -320 -56 -421 -84 -293 -81 -504 -187 -738 -374 -175 -139 -332 -316
-347 -390 -5 -25 -1 -33 28 -54 126 -94 350 -99 689 -16 97 24 136 29 172 24
l47 -7 -22 -28 c-22 -26 -25 -27 -55 -14 -42 17 -39 18 -53 -17 -13 -31 -24
-37 -35 -20 -11 18 -41 10 -55 -15 -12 -22 -15 -23 -40 -10 -25 13 -29 12 -50
-10 l-23 -25 -32 20 c-41 25 -51 25 -58 -1 -5 -20 -11 -21 -56 -16 -74 9 -66
-13 17 -51 107 -49 218 -82 339 -100 197 -29 435 3 634 87 69 29 79 30 128 21
70 -13 282 -13 396 1 50 6 134 21 187 35 170 42 186 57 73 67 -81 8 -191 40
-270 79 -93 45 -95 49 -37 91 73 54 273 171 389 228 103 50 103 50 190 47 l88
-3 -2 31 c-3 29 0 32 40 43 74 20 148 31 209 31 56 0 61 -2 97 -40 21 -22 43
-40 49 -40 6 0 13 14 17 31 7 29 10 31 39 25 17 -3 51 -16 76 -29 42 -21 50
-33 115 -157 72 -137 130 -224 181 -271 41 -38 81 -61 87 -52 3 5 -5 45 -18
90 -13 45 -31 130 -39 188 -26 185 -18 196 386 598 160 158 288 291 284 294
-3 3 -45 -9 -93 -27 -209 -79 -451 -208 -686 -367 -76 -51 -141 -93 -143 -93
-3 0 -25 13 -49 30 -40 27 -43 33 -50 87 -10 86 -17 93 -78 93 -29 0 -81 -9
-117 -21 l-66 -21 -96 31 c-139 44 -297 70 -503 83 l-180 11 -34 31 c-18 17
-44 54 -57 82 -26 60 -54 194 -54 265 0 27 -3 49 -7 48 -5 0 -34 -16 -67 -36z
m54 -52 c0 -128 55 -278 124 -337 39 -34 41 -34 135 -34 178 0 427 -38 598
-91 l96 -29 51 19 c65 23 122 34 146 26 14 -4 21 -22 30 -74 11 -68 12 -70 66
-105 29 -20 56 -36 60 -36 3 0 47 29 97 64 212 147 447 281 635 362 57 24 107
44 110 44 3 0 -102 -107 -234 -237 -255 -252 -340 -350 -375 -428 -18 -41 -20
-59 -15 -126 7 -73 36 -230 51 -274 4 -11 -20 8 -53 42 -57 58 -128 173 -197
315 -31 63 -57 84 -145 113 l-54 18 -23 -29 c-23 -29 -24 -29 -39 -9 -44 60
-40 58 -133 51 -99 -7 -241 -41 -253 -59 -4 -6 -5 -20 -2 -31 6 -17 2 -18 -70
-11 l-76 7 -128 -64 c-136 -69 -365 -208 -422 -257 -34 -29 -35 -30 -15 -45
46 -37 186 -98 273 -120 l93 -23 -58 -12 c-231 -48 -391 -60 -528 -41 -49 7
-97 13 -105 13 -8 0 -63 -19 -122 -42 -151 -58 -272 -81 -427 -81 -158 0 -227
11 -367 56 l-111 36 21 23 21 24 34 -21 34 -22 22 28 c22 28 23 28 50 10 26
-17 28 -17 41 0 7 11 15 24 17 30 3 8 11 7 26 -1 30 -18 35 -17 54 17 18 29
19 30 48 15 29 -15 30 -15 60 20 21 23 47 40 76 48 48 12 53 33 7 30 -16 -1
-49 1 -74 4 l-44 5 79 33 c94 39 178 85 220 119 l30 24 -18 69 c-11 37 -21 77
-24 88 -10 38 98 -110 133 -183 20 -40 40 -70 45 -67 17 11 -15 165 -57 270
l-24 60 26 -30 c44 -51 99 -140 118 -189 24 -64 50 -63 41 2 -8 60 -30 138
-55 199 l-20 48 50 -54 c53 -56 93 -124 105 -179 17 -79 60 17 51 114 -6 73
-4 75 99 127 397 198 923 207 1502 25 120 -37 163 -43 137 -19 -12 12 -217 73
-356 106 -342 82 -716 88 -1013 14 -105 -25 -232 -75 -318 -122 -85 -48 -89
-54 -78 -113 5 -27 7 -61 4 -76 -5 -25 -7 -22 -36 35 -33 66 -154 197 -183
197 -9 0 -14 -5 -11 -12 20 -43 76 -187 82 -208 4 -14 -11 2 -34 36 -48 72
-153 174 -159 155 -2 -7 10 -44 28 -83 18 -38 41 -97 51 -131 16 -56 16 -60 1
-37 -68 100 -188 237 -198 227 -4 -4 5 -33 19 -64 14 -32 34 -88 45 -125 l20
-67 -22 -19 c-57 -52 -294 -157 -333 -147 -27 6 -52 42 -63 88 -12 56 20 88
51 51 10 -12 10 -20 1 -35 -14 -21 -7 -43 9 -33 6 3 15 17 20 31 21 55 -53 99
-95 57 -30 -30 -15 -107 30 -155 l24 -25 -107 -27 c-219 -56 -405 -70 -537
-42 -65 14 -156 57 -156 74 0 20 83 133 150 204 195 208 473 394 726 486 122
45 365 105 504 126 63 9 120 18 126 20 6 2 27 37 47 79 43 90 109 185 169 243
43 41 126 102 141 103 4 0 7 -22 7 -49z"/>
</g>
</svg>
