{
    "asset": {
        "version": "2.0",
        "generator": "Open Asset Import Library (assimp v5.4.0)"
    },
    "extensionsUsed": [
        "KHR_materials_volume",
        "FB_ngon_encoding"
    ],
    "accessors": [
        {
            "bufferView": 0,
            "byteOffset": 0,
            "componentType": 5126,
            "count": 43085,
            "type": "VEC3",
            "max": [
                0.06422415375709534,
                0.08317962288856506,
                0.05731165409088135
            ],
            "min": [
                -0.020530223846435547,
                -0.06705033779144287,
                -0.13376182317733765
            ]
        },
        {
            "bufferView": 1,
            "byteOffset": 0,
            "componentType": 5126,
            "count": 43085,
            "type": "VEC3",
            "max": [
                0.9999294281005859,
                0.9999512434005737,
                0.9999980926513672
            ],
            "min": [
                -0.9999608397483826,
                -0.9999825954437256,
                -0.9999805688858032
            ]
        },
        {
            "bufferView": 2,
            "byteOffset": 0,
            "componentType": 5126,
            "count": 43085,
            "type": "VEC2",
            "max": [
                0.9995114207267761,
                0.9643809199333191
            ],
            "min": [
                0.00048828125,
                0.00048828125
            ]
        },
        {
            "bufferView": 3,
            "byteOffset": 0,
            "componentType": 5125,
            "count": 118761,
            "type": "SCALAR",
            "max": [
                43084
            ],
            "min": [
                0
            ]
        },
        {
            "bufferView": 4,
            "byteOffset": 0,
            "componentType": 5126,
            "count": 65548,
            "type": "VEC3",
            "max": [
                0.06687842309474945,
                0.07385699450969696,
                0.06413227319717407
            ],
            "min": [
                -0.06374990940093994,
                -0.05878305435180664,
                -0.13561421632766724
            ]
        },
        {
            "bufferView": 5,
            "byteOffset": 0,
            "componentType": 5126,
            "count": 65548,
            "type": "VEC3",
            "max": [
                0.9999805688858032,
                0.9999923706054688,
                0.9999980926513672
            ],
            "min": [
                -0.9999904036521912,
                -0.9999825954437256,
                -0.9997854828834534
            ]
        },
        {
            "bufferView": 6,
            "byteOffset": 0,
            "componentType": 5126,
            "count": 65548,
            "type": "VEC2",
            "max": [
                0.9995114207267761,
                0.9663326144218445
            ],
            "min": [
                0.00048828125,
                0.00048828125
            ]
        },
        {
            "bufferView": 7,
            "byteOffset": 0,
            "componentType": 5125,
            "count": 238044,
            "type": "SCALAR",
            "max": [
                65547
            ],
            "min": [
                0
            ]
        }
    ],
    "buffers": [
        {
            "byteLength": 4903476,
            "uri": "DavidHeadModel_0.bin"
        }
    ],
    "bufferViews": [
        {
            "buffer": 0,
            "byteOffset": 0,
            "byteLength": 517020,
            "target": 34962
        },
        {
            "buffer": 0,
            "byteOffset": 517020,
            "byteLength": 517020,
            "target": 34962
        },
        {
            "buffer": 0,
            "byteOffset": 1034040,
            "byteLength": 344680,
            "target": 34962
        },
        {
            "buffer": 0,
            "byteOffset": 1378720,
            "byteLength": 475044,
            "target": 34963
        },
        {
            "buffer": 0,
            "byteOffset": 1853764,
            "byteLength": 786576,
            "target": 34962
        },
        {
            "buffer": 0,
            "byteOffset": 2640340,
            "byteLength": 786576,
            "target": 34962
        },
        {
            "buffer": 0,
            "byteOffset": 3426916,
            "byteLength": 524384,
            "target": 34962
        },
        {
            "buffer": 0,
            "byteOffset": 3951300,
            "byteLength": 952176,
            "target": 34963
        }
    ],
    "materials": [
        {
            "name": "Mat_1",
            "pbrMetallicRoughness": {
                "metallicFactor": 0.800000011920929
            }
        }
    ],
    "meshes": [
        {
            "name": "meshes[0]",
            "primitives": [
                {
                    "mode": 4,
                    "material": 0,
                    "indices": 3,
                    "attributes": {
                        "POSITION": 0,
                        "NORMAL": 1,
                        "TEXCOORD_0": 2
                    }
                }
            ]
        },
        {
            "name": "meshes[1]",
            "primitives": [
                {
                    "mode": 4,
                    "material": 0,
                    "indices": 7,
                    "attributes": {
                        "POSITION": 4,
                        "NORMAL": 5,
                        "TEXCOORD_0": 6
                    }
                }
            ]
        }
    ],
    "nodes": [
        {
            "name": "DavidHeadModel",
            "children": [
                1,
                8,
                9
            ]
        },
        {
            "name": "RootNode_(gltf_orientation_matrix)",
            "matrix": [
                1.0,
                0.0,
                0.0,
                0.0,
                0.0,
                -1.3435885648505064e-7,
                -1.0000001192092896,
                0.0,
                0.0,
                1.0000001192092896,
                -1.3435885648505064e-7,
                0.0,
                0.0,
                0.0,
                0.0,
                1.0
            ],
            "children": [
                2
            ],
            "extras": {
                "name": "RootNode (gltf orientation matrix)"
            }
        },
        {
            "name": "RootNode_(model_correction_matrix)",
            "matrix": [
                1.0,
                0.0,
                0.0,
                0.0,
                0.0,
                1.0,
                0.0,
                0.0,
                0.0,
                0.0,
                1.0,
                0.0,
                2.225306749343872,
                0.0,
                -22.6518497467041,
                1.0
            ],
            "children": [
                3
            ],
            "extras": {
                "name": "RootNode (model correction matrix)"
            }
        },
        {
            "name": "untitledfbx",
            "matrix": [
                1.0,
                0.0,
                0.0,
                0.0,
                0.0,
                -1.3435885648505064e-7,
                1.0000001192092896,
                0.0,
                0.0,
                -1.0000001192092896,
                -1.3435885648505064e-7,
                0.0,
                0.0,
                0.0,
                0.0,
                1.0
            ],
            "children": [
                4
            ],
            "extras": {
                "name": "untitled.fbx"
            }
        },
        {
            "name": "RootNode",
            "children": [
                5
            ],
            "extras": {
                "name": "RootNode"
            }
        },
        {
            "name": "meshNode",
            "matrix": [
                126.28752899169922,
                0.0,
                0.0,
                0.0,
                0.0,
                -0.000016967847841442563,
                -126.28752136230469,
                0.0,
                0.0,
                126.28752136230469,
                -0.000016967847841442563,
                0.0,
                0.0,
                16.789749145507813,
                0.1271950602531433,
                1.0
            ],
            "children": [
                6,
                7
            ],
            "extras": {
                "name": "meshNode"
            }
        },
        {
            "name": "meshNode_Material_u1_v1_0001",
            "matrix": [
                -0.5985508561134338,
                -0.8010848760604858,
                0.0,
                0.0,
                0.8010848760604858,
                -0.5985508561134338,
                0.0,
                0.0,
                0.0,
                0.0,
                1.0,
                0.0,
                -0.01828221045434475,
                -0.01766839064657688,
                0.09326022863388062,
                1.0
            ],
            "mesh": 0,
            "extras": {
                "name": "meshNode_Material_u1_v1_0.001"
            }
        },
        {
            "name": "meshNode_Material_u1_v1_0",
            "matrix": [
                -0.5985508561134338,
                -0.8010848760604858,
                0.0,
                0.0,
                0.8010848760604858,
                -0.5985508561134338,
                0.0,
                0.0,
                0.0,
                0.0,
                1.0,
                0.0,
                -0.01828221045434475,
                -0.01766839064657688,
                0.09326022863388062,
                1.0
            ],
            "mesh": 1,
            "extras": {
                "name": "meshNode_Material_u1_v1_0"
            }
        },
        {
            "name": "Light",
            "matrix": [
                -0.2908647358417511,
                -0.055189065635204315,
                -0.9551712274551392,
                0.0,
                0.566393256187439,
                0.7946722507476807,
                -0.21839122474193573,
                0.0,
                0.7711008787155151,
                -0.6045247912406921,
                -0.19988344609737396,
                0.0,
                4.076245307922363,
                5.903861999511719,
                -1.0054539442062378,
                1.0
            ],
            "extras": {
                "name": "Light"
            }
        },
        {
            "name": "Camera",
            "matrix": [
                0.6859206557273865,
                -4.011331711240018e-9,
                -0.7276763319969177,
                0.0,
                0.6515582203865051,
                0.44527140259742737,
                0.6141703724861145,
                0.0,
                0.32401347160339355,
                -0.8953956365585327,
                0.3054208755493164,
                0.0,
                7.358891487121582,
                4.958309173583984,
                6.925790786743164,
                1.0
            ],
            "extras": {
                "name": "Camera"
            }
        }
    ],
    "scenes": [
        {
            "nodes": [
                0
            ]
        }
    ],
    "scene": 0
}